<svg width="88" height="88" viewBox="0 0 88 88" fill="none" xmlns="http://www.w3.org/2000/svg">
<path d="M0 44C0 19.6995 19.6995 0 44 0C68.3005 0 88 19.6995 88 44C88 68.3005 68.3005 88 44 88C19.6995 88 0 68.3005 0 44Z" fill="#C0FFF2"/>
<path d="M26.0961 23.5702L27.0531 29.3093C27.6696 33.0108 29.4275 36.4271 32.0811 39.0805L37.0011 44.0006L35.8401 46.3256C35.1891 47.6247 35.4441 49.1937 36.4701 50.2197L40.5141 54.2638C41.1441 54.8938 41.5011 55.7548 41.5011 56.6488V59.9159C41.5011 61.1939 42.2211 62.361 43.3671 62.934L43.8261 63.162C45.1251 63.813 46.6941 63.558 47.7201 62.532L49.8891 60.3629C53.2337 57.0176 55.6062 52.8261 56.7531 48.2367C56.9022 47.6417 56.8806 47.0168 56.6906 46.4336C56.5006 45.8503 56.15 45.3325 55.6791 44.9396L51.6891 41.6155C50.9361 40.9855 49.9431 40.7185 48.9741 40.8805L45.4641 41.4655C44.9344 41.5537 44.3914 41.5142 43.88 41.3504C43.3687 41.1866 42.9038 40.9031 42.5241 40.5235L41.6391 39.6385C41.3257 39.3251 41.077 38.953 40.9074 38.5435C40.7378 38.1341 40.6505 37.6952 40.6505 37.2519C40.6505 36.8087 40.7378 36.3698 40.9074 35.9604C41.077 35.5509 41.3257 35.1788 41.6391 34.8654L42.0291 34.4694C42.5305 33.968 43.1772 33.6372 43.8772 33.5241C44.5773 33.411 45.2952 33.5213 45.9291 33.8394L47.7381 34.7454C48.1939 34.9743 48.7103 35.0537 49.2139 34.9725C49.7174 34.8912 50.1826 34.6533 50.5433 34.2926C50.904 33.9319 51.1418 33.4667 51.2231 32.9632C51.3044 32.4596 51.2249 31.9432 50.9961 31.4873L50.5011 30.5003L54.269 27.9893C56.2231 26.6855 57.8031 24.8945 58.8531 22.7932L59.2911 21.9171M26.0961 23.5702C21.8424 27.2461 18.8423 32.1582 17.5142 37.6211C16.1861 43.0839 16.5964 48.8251 18.6877 54.0437C20.7791 59.2622 24.4472 63.6977 29.1803 66.7315C33.9134 69.7652 39.4755 71.2458 45.0904 70.9667C50.7054 70.6876 56.0932 68.6627 60.5021 65.1745C64.9111 61.6864 68.1212 56.9089 69.6848 51.5087C71.2483 46.1085 71.0872 40.355 69.224 35.0507C67.3607 29.7465 63.8883 25.1531 59.2911 21.9171M26.0961 23.5702C30.9966 19.3233 37.2665 16.99 43.7511 17C49.5381 17 54.8991 18.8181 59.2911 21.9171" stroke="#09354E" stroke-width="3.70623" stroke-linecap="round" stroke-linejoin="round"/>
</svg>
