<svg width="88" height="88" viewBox="0 0 88 88" fill="none" xmlns="http://www.w3.org/2000/svg">
<path d="M0 44C0 19.6995 19.6995 0 44 0C68.3005 0 88 19.6995 88 44C88 68.3005 68.3005 88 44 88C19.6995 88 0 68.3005 0 44Z" fill="#C0FFF2"/>
<path d="M44.5 68V43.25M55.75 68V43.25M33.25 68V43.25M17.5 32L44.5 14L71.5 32M67 68V35.996C59.5567 34.8307 52.034 34.2469 44.5 34.25C36.847 34.25 29.332 34.85 22 35.996V68M17.5 68H71.5M44.5 25.25H44.524V25.274H44.5V25.25Z" stroke="#09354E" stroke-width="3.70623" stroke-linecap="round" stroke-linejoin="round"/>
</svg>
