<svg width="121" height="108" viewBox="0 0 121 108" fill="none" xmlns="http://www.w3.org/2000/svg">
<mask id="mask0_6500_20624" style="mask-type:luminance" maskUnits="userSpaceOnUse" x="0" y="1" width="121" height="107">
<path d="M121 1H0V108H121V1Z" fill="white"/>
</mask>
<g mask="url(#mask0_6500_20624)">
<path d="M91.1656 78.6754C91.1656 78.6754 84.3604 73.5898 78.7174 73.5898C73.0744 73.5898 63.826 77.587 61.3966 77.8222C58.9669 78.0574 56.7724 78.745 52.6969 78.6754C48.6214 78.6058 40.5487 80.4085 42.3514 84.1705C44.1541 87.9325 49.6204 85.4848 51.3076 85.4065C52.9948 85.3282 56.6158 85.6597 56.6158 85.6597C56.6158 85.6597 52.1749 86.6278 50.0632 87.67C47.9515 88.7122 43.4113 89.2939 40.714 88.8727C40.714 88.8727 43.7065 95.026 55.2967 93.0874C66.8866 91.1482 91.1656 78.6754 91.1656 78.6754Z" fill="#FAA487"/>
<path d="M101.2 81.9827C98.0215 80.8838 95.3137 79.9862 94.003 79.6412C89.5045 78.4574 86.5447 75.6161 81.0991 78.2207C75.6535 80.8253 67.7218 86.8628 64.4071 87.8099C61.0924 88.757 56.2387 89.9408 53.0422 90.6512C49.8457 91.3616 47.1229 89.3489 44.4001 88.994C41.6773 88.6388 38.7178 87.6917 38.7178 87.6917C38.7178 87.6917 32.3251 83.0747 28.5367 86.7446C28.5367 86.7446 16.1572 81.8663 17.9131 88.7465C17.9131 88.7465 21.8857 89.9555 24.5341 91.3085C24.5341 91.3085 12.2422 88.9769 12.2998 95.5691C12.2998 95.5691 12.9331 96.5765 14.6602 96.1448C16.3873 95.7131 25.4725 95.2442 30.0241 96.4805C34.5757 97.7168 39.577 97.6607 39.577 97.6607C39.577 97.6607 43.2859 99.0656 46.3762 99.2342C49.4668 99.4028 55.0864 99.5153 55.8169 99.8522C56.5474 100.189 58.0645 101.65 60.9304 101.257C63.7963 100.864 85.9177 94.4846 95.152 96.2558C96.8077 96.5735 98.8933 97.5557 101.2 98.5946V81.9827H101.2Z" fill="#FAA487"/>
<path d="M81.0994 78.2207C75.6538 80.8253 67.7221 86.8628 64.4074 87.8099C61.0927 88.757 56.239 89.9408 53.0425 90.6512C49.8463 91.3616 47.1232 89.3489 44.4004 88.994" stroke="#E38464" stroke-miterlimit="10" stroke-linecap="round" stroke-linejoin="round"/>
<path d="M28.537 86.7441C28.537 86.7441 27.928 87.7287 28.0354 88.4808C28.1428 89.2329 31.4731 89.1969 36.1288 91.3098C40.7842 93.4227 42.5389 95.2131 45.8695 96.3234C49.2001 97.4334 52.0291 98.2572 52.0291 98.2572" stroke="#E38464" stroke-miterlimit="10" stroke-linecap="round" stroke-linejoin="round"/>
<path d="M24.5341 91.3081C24.5341 91.3081 28.7515 92.8141 31.5445 94.39C34.3378 95.9656 39.577 97.6603 39.577 97.6603" stroke="#E38464" stroke-miterlimit="10" stroke-linecap="round" stroke-linejoin="round"/>
<path d="M56.6158 85.6596C56.6158 85.6596 60.0322 84.8955 61.8247 84.0681C63.6172 83.2407 62.1349 82.2756 63.8239 79.2075" stroke="#E38464" stroke-miterlimit="10" stroke-linecap="round" stroke-linejoin="round"/>
<path d="M146.231 83.4017C147.019 83.4083 147.881 83.4395 148.476 83.9576C149.236 84.62 149.242 85.7786 149.18 86.7848C148.823 92.5934 148.232 98.3873 147.408 104.148C147.113 106.215 146.423 108.093 146.05 110.106C145.59 112.593 145.527 114.899 144.499 117.277C144.223 117.918 143.789 118.628 143.093 118.679C142.754 118.703 142.428 118.558 142.119 118.415C133.059 114.239 124.068 109.916 115.149 105.448C110.689 103.214 106.248 100.943 101.825 98.6369C98.452 96.8783 96.658 94.9754 95.8237 91.0895C95.2507 88.4204 95.7703 85.6508 96.3256 82.9778C96.7126 81.1154 97.276 80.9111 98.8741 81.0362C101.026 81.2048 103.199 81.4913 105.363 81.6584C109.936 82.0112 114.512 82.3115 119.092 82.5584C128.13 83.0459 137.18 83.327 146.231 83.4017Z" fill="#FAA487"/>
</g>
<path d="M14.1616 32.1827C16.8412 38.8058 18.1882 45.9461 18.1036 53.0909C18.0799 55.0952 17.9416 57.0965 17.6953 59.0855C17.6761 59.2406 17.92 59.2394 17.9389 59.0855C18.8167 51.9998 18.2752 44.7536 16.3591 37.8752C15.8146 35.9204 15.1573 33.9989 14.3965 32.1182C14.3383 31.9745 14.1025 32.0372 14.1616 32.1827Z" fill="#7BC998"/>
<path d="M9.14318 24.6038C9.71348 25.8026 10.3624 26.8292 11.173 27.8531C11.6119 28.4075 12.0208 28.9898 12.4183 29.5742C12.5566 29.7773 13.5139 30.9524 13.4332 31.1504C13.7089 30.4757 13.552 29.7089 13.3606 29.0057C13.1041 28.0637 10.3477 20.0693 8.73818 21.5405C8.58458 21.6809 8.53208 21.9002 8.51228 22.1075C8.42858 22.973 8.76968 23.819 9.14318 24.6038Z" fill="#DA6158"/>
<path d="M14.4139 23.6473C14.5726 25.0747 14.7313 26.5024 14.89 27.9298C14.9284 28.2745 15.2959 29.6824 15.0859 29.9389C14.7046 30.4051 14.323 29.689 14.173 29.4109C12.919 27.0868 12.0997 24.5503 11.9458 21.9055C11.9281 21.6043 11.9215 21.2929 12.0301 21.0115C12.139 20.7301 12.391 20.4835 12.6925 20.4703C12.925 20.4601 13.1422 20.5867 13.3186 20.7379C14.1256 21.4294 14.2963 22.591 14.4139 23.6473Z" fill="#DA6158"/>
<path d="M16.5913 22.0086C16.3771 22.0521 16.1737 22.1694 16.0171 22.3248C15.7735 22.5666 15.6265 22.8885 15.5119 23.2122C15.0937 24.3942 15.052 25.6647 15.1108 26.9055C15.1372 27.4665 15.1492 27.9552 15.3955 28.4592C15.5344 28.7436 15.6328 29.0421 15.7585 29.3325C15.8452 29.5329 16.2139 30.0081 16.2046 30.2073C16.267 28.8513 16.5622 27.5064 17.0731 26.2488C17.5342 25.1139 18.1162 23.9721 17.671 22.7292C17.5519 22.3965 17.296 22.0917 16.9522 22.0113C16.8328 21.9834 16.7104 21.9846 16.5913 22.0086Z" fill="#DA6158"/>
<path d="M7.05009 27.8214C8.28489 28.5549 9.51969 29.2884 10.7548 30.0222C11.053 30.1995 12.1837 31.1151 12.5041 31.0296C13.0861 30.8745 12.5911 30.2316 12.3997 29.9802C10.7998 27.8793 8.82729 26.0862 6.48159 24.8547C6.21429 24.7143 5.93349 24.5796 5.63229 24.5628C5.33109 24.5457 5.00229 24.6735 4.86609 24.9429C4.76109 25.1505 4.78659 25.4004 4.85139 25.6239C5.14899 26.6439 6.13659 27.2787 7.05009 27.8214Z" fill="#DA6158"/>
<path d="M4.67679 29.011C4.80459 28.834 4.99569 28.6969 5.20179 28.6186C5.52249 28.4965 5.87649 28.4954 6.21849 28.5245C7.46769 28.6313 8.64219 29.1175 9.74799 29.6827C10.2481 29.9383 10.6882 30.151 11.0461 30.5833C11.2477 30.8272 11.479 31.04 11.692 31.2743C11.8387 31.436 12.1195 31.9679 12.3049 32.0417C11.044 31.5392 9.69699 31.2529 8.34069 31.1995C7.11639 31.1512 5.83629 31.2104 4.88769 30.2921C4.63389 30.0464 4.46169 29.6876 4.53039 29.3411C4.55379 29.2205 4.60569 29.1094 4.67679 29.011Z" fill="#DA6158"/>
<path d="M11.3815 31.756C12.0775 32.278 12.9985 32.5534 13.8226 32.5069C15.8509 32.3929 16.5019 30.1882 16.3636 28.4689C16.3492 28.2895 16.3243 28.1056 16.2355 27.949C16.1467 27.7924 15.9805 27.6679 15.8008 27.6778C15.607 27.6883 15.4549 27.8434 15.3361 27.997C15.0946 28.3084 14.902 28.6576 14.7673 29.0278C14.9329 28.5721 14.0926 27.9565 13.6996 28.021C13.0396 28.129 13.1485 29.1292 13.171 29.6143C13.0708 29.2741 12.8254 28.9792 12.5089 28.8193C12.0346 28.5796 11.8072 29.1493 11.7898 29.5399C11.7778 29.8117 11.8474 30.0814 11.9509 30.3331C11.8054 29.9797 11.3236 29.5495 10.9054 29.6398C10.4239 29.7439 10.303 30.2506 10.4749 30.646C10.6657 31.0858 10.9876 31.4602 11.3815 31.756Z" fill="#7BC998"/>
<path d="M78.4174 29.394C74.7571 35.5947 72.3529 42.5169 71.3803 49.6518C71.1115 51.6222 70.9534 53.6058 70.9027 55.5936C70.8988 55.7505 71.1424 55.7502 71.1463 55.5936C71.3284 48.4527 72.9403 41.3616 75.8668 34.8447C76.6867 33.0186 77.6104 31.2408 78.6277 29.517C78.7078 29.3817 78.4972 29.259 78.4174 29.394Z" fill="#7BC998"/>
<path d="M82.0033 26.0117C81.8101 26.102 81.1537 26.402 80.974 26.1923C80.9317 26.1428 80.9209 26.0741 80.9176 26.0093C80.9041 25.7429 80.9878 25.4822 81.0769 25.2308C81.1657 24.9797 81.262 24.7286 81.409 24.5066C81.6058 24.2096 82.0213 23.8088 82.4059 23.8307C82.7446 23.8496 83.0296 24.1442 83.0956 24.4766C83.1619 24.8093 83.0368 25.16 82.8217 25.4222C82.6069 25.6844 82.3105 25.868 82.0033 26.0117Z" fill="#FCB130"/>
<path d="M80.3551 22.4309C81.1093 23.3192 80.7985 24.7367 80.0083 25.4618C79.9192 25.5437 79.8097 25.6244 79.6897 25.6097C79.5013 25.5869 79.423 25.3613 79.3852 25.1753C79.2379 24.4502 78.9268 23.6114 79.0111 22.8677C79.0468 22.553 79.1968 22.2146 79.495 22.1084C79.8019 21.9992 80.1442 22.1825 80.3551 22.4309Z" fill="#FCB130"/>
<path d="M84.8542 26.3124C83.8648 25.6965 82.5082 26.2116 81.907 27.0999C81.8392 27.2001 81.7753 27.3201 81.8071 27.4368C81.8572 27.6198 82.0918 27.6642 82.2814 27.6744C83.0203 27.7137 83.8957 27.8988 84.619 27.7062C84.925 27.6249 85.2376 27.4269 85.2991 27.1164C85.3624 26.7963 85.1311 26.4846 84.8542 26.3124Z" fill="#FCB130"/>
<path d="M77.3056 27.976C77.5444 27.8905 77.7829 27.805 78.0205 27.7189C78.2995 27.6178 79.6585 27.0325 78.9427 26.5786C77.8852 25.9081 75.9928 26.4202 75.0346 26.7016C74.4265 26.8801 73.831 27.1333 73.4362 27.5926C73.2064 27.8599 73.0597 28.2754 73.2973 28.6141C73.399 28.7587 73.5571 28.8637 73.7206 28.9249C74.1763 29.0947 74.6305 28.9438 75.0379 28.7929C75.7894 28.5139 76.5496 28.246 77.3056 27.976Z" fill="#FCB130"/>
<path d="M84.5257 33.9053C84.46 34.0067 84.3742 34.0919 84.2656 34.1444C84.088 34.2302 83.8732 34.2134 83.6917 34.136C83.5102 34.0586 83.3578 33.926 83.2219 33.7829C82.6597 33.191 82.5046 32.5184 82.3156 31.7576C82.1023 30.8975 81.6985 30.0863 81.3634 29.27C81.3028 29.1221 81.2653 28.9076 81.4111 28.8416C81.475 28.8128 81.5497 28.8296 81.6157 28.8536C82.0978 29.0279 82.6645 29.6507 83.0281 30.0065C83.8693 30.83 84.9916 32.2919 84.6673 33.5693C84.6376 33.6863 84.5917 33.8039 84.5257 33.9053Z" fill="#FCB130"/>
<path d="M72.3709 23.4186C72.2803 23.4987 72.2086 23.5959 72.1726 23.7111C72.1138 23.8995 72.1618 24.1095 72.265 24.2775C72.3682 24.4458 72.5218 24.5769 72.6832 24.6906C73.351 25.1598 74.0392 25.2147 74.8195 25.29C75.7018 25.3749 76.5631 25.6554 77.4199 25.8672C77.575 25.9056 77.7928 25.911 77.8366 25.7574C77.8558 25.6899 77.8279 25.6185 77.7949 25.5567C77.5519 25.1055 76.8529 24.636 76.4476 24.3285C75.5098 23.6169 73.8988 22.7214 72.6829 23.229C72.571 23.2758 72.4615 23.3385 72.3709 23.4186Z" fill="#FCB130"/>
<path d="M79.7716 30.1035C79.8211 29.8548 79.8706 29.6061 79.921 29.3586C79.9801 29.0679 80.3602 27.6378 80.9137 28.2792C81.7321 29.2272 81.5026 31.1739 81.3649 32.163C81.2773 32.7906 81.1144 33.4167 80.7178 33.8748C80.4871 34.1415 80.0974 34.3473 79.7275 34.1619C79.5694 34.0827 79.4425 33.9417 79.3582 33.7887C79.1236 33.363 79.2061 32.8914 79.2958 32.4663C79.4617 31.6821 79.6153 30.8907 79.7716 30.1035Z" fill="#FCB130"/>
<path d="M77.1973 32.2539C78.4648 31.3668 79.2916 30.0231 79.8832 28.6029C80.062 28.173 80.3827 27.3114 79.5775 27.1122C78.9163 26.9487 78.6616 27.6423 78.3253 27.9891C77.8567 28.4727 77.4136 28.9803 76.9975 29.5095C76.4419 30.216 75.919 31.0065 75.8875 31.9611C75.8809 32.1591 75.9193 32.4015 76.1044 32.5215C76.2127 32.592 76.3435 32.5983 76.4596 32.5836C76.7407 32.5482 76.9789 32.4069 77.1973 32.2539Z" fill="#FCB130"/>
<path d="M75.9013 23.3179C75.7189 23.0395 75.5494 22.7368 75.5266 22.405C75.5038 22.0732 75.6679 21.7072 75.9805 21.5932C76.2271 21.5035 76.5043 21.586 76.7359 21.7096C77.2663 21.9928 77.6602 22.4785 77.9782 22.9888C78.3169 23.5327 79.1059 24.8722 78.8113 25.5397C78.3904 26.4928 76.1545 23.704 75.9013 23.3179Z" fill="#FCB130"/>
<path d="M84.5539 30.7829C84.856 30.9224 85.1803 31.046 85.5121 31.0199C85.8439 30.9938 86.182 30.7778 86.2486 30.452C86.3011 30.1949 86.179 29.933 86.0227 29.7218C85.6648 29.2388 85.1269 28.9202 84.5752 28.6805C83.9875 28.4252 82.5469 27.8411 81.9298 28.2305C81.0484 28.7861 84.1348 30.5891 84.5539 30.7829Z" fill="#FCB130"/>
<path d="M81.5884 25.2106C82.2133 25.7026 82.7119 26.3692 82.9405 27.1309C83.1298 27.7615 83.3035 28.9501 82.7653 29.4616C82.5535 29.6629 82.228 29.6992 81.9421 29.6392C81.4054 29.5267 80.9203 29.1475 80.4595 28.8664C79.5256 28.297 78.6781 27.586 77.9545 26.7655C77.6527 26.4232 77.3677 26.0539 77.2114 25.6252C77.1439 25.4404 77.1013 25.2388 77.1448 25.0468C77.1955 24.8224 77.3614 24.6355 77.5609 24.5206C78.1405 24.1873 79.0351 24.2482 79.6663 24.3655C80.3575 24.4939 81.034 24.7741 81.5884 25.2106Z" fill="#DA6158"/>
<path d="M0.530496 36.2889C0.541896 35.6994 0.572197 35.1108 0.691297 34.5237C4.4977 38.5371 9.67 40.8126 13.2574 45.0723C18.0334 50.7435 19.7485 58.764 18.0376 65.9781C17.9908 66.1755 17.9239 66.3957 17.7433 66.4881C17.5564 66.5838 17.3314 66.5004 17.1403 66.4134C11.8081 63.9849 6.8698 60.4464 3.886 55.2756C0.923798 50.142 -0.070104 44.1147 0.468396 38.2569C0.528996 37.5999 0.517896 36.9438 0.530496 36.2889Z" fill="#7BC998"/>
<path d="M22.7341 72.528C19.3783 68.5203 16.3909 64.2195 13.6564 59.7681C12.901 58.5384 12.166 57.2964 11.4448 56.0463C11.4799 56.0448 11.5138 56.0289 11.5363 55.9887C12.4258 54.3945 13.3366 52.8123 14.2693 51.2427C14.3497 51.1077 14.1391 50.985 14.059 51.1197C13.129 52.6848 12.2206 54.2622 11.3335 55.8522C9.7879 53.1642 8.3119 50.436 6.877 47.6874C6.8887 47.6754 6.8983 47.6604 6.9052 47.6421C7.4605 46.1631 8.0155 44.6838 8.5708 43.2048C8.626 43.0578 8.3905 42.9945 8.3359 43.14C7.8016 44.5635 7.2673 45.9867 6.733 47.4099C6.511 46.9839 6.2893 46.5579 6.0691 46.1313C4.7245 43.5252 3.4093 40.9041 2.0947 38.2827C2.0245 38.1426 1.8142 38.2656 1.8844 38.4057C4.2292 43.0815 6.577 47.7576 9.0877 52.347C9.1021 52.3731 9.1165 52.3989 9.1309 52.425C7.5619 51.8133 5.9929 51.2016 4.4242 50.5899C4.2781 50.5329 4.2148 50.7684 4.3594 50.8248C6.0112 51.4689 7.6627 52.1127 9.3145 52.7568C10.4965 54.9063 11.7142 57.0372 12.9856 59.1354C12.0523 58.8783 11.1187 58.6212 10.1854 58.3644C9.1561 58.0809 8.0953 57.843 7.1161 57.4098C6.9739 57.3468 6.85 57.5568 6.9931 57.6201C7.9573 58.0464 8.9914 58.2882 10.0048 58.5672C11.0608 58.8579 12.1165 59.1486 13.1725 59.4393C14.4802 61.5858 15.8419 63.6987 17.2774 65.7624C18.9379 68.1498 20.6953 70.4697 22.5625 72.6996C22.6624 72.8205 22.834 72.6474 22.7341 72.528Z" fill="#58A390"/>
<path d="M83.4817 64.8123C85.5064 64.0254 87.4954 63.0285 89.0434 61.4721C90.01 60.5004 90.7705 59.3466 91.5163 58.1967C92.4229 56.7984 93.3181 55.3923 94.2013 53.9787C91.8088 54.5595 89.7955 56.1273 87.8707 57.6627C86.5225 58.7379 85.1773 59.8173 83.8354 60.9006C82.498 61.9803 81.1519 63.075 80.0122 64.3683C79.7008 64.7217 79.4185 65.0946 79.1494 65.4768C79.5088 64.884 79.8553 64.2834 80.185 63.6735C81.2314 61.7385 82.1221 59.7204 82.8451 57.6444C84.2281 55.9623 85.4968 54.1776 86.368 52.1868C87.4291 49.7616 88.0408 46.794 87.5359 44.1765C87.2314 42.5973 86.6512 41.0868 86.074 39.5856C85.9732 39.3231 85.8721 39.0609 85.7713 38.7984C85.5691 38.2725 85.3669 37.7466 85.1647 37.2207C83.7328 40.7295 83.0371 44.4639 82.6654 48.2112C82.4998 49.8798 82.5244 51.3606 82.5592 53.0469C82.5754 53.8323 82.7281 55.6413 82.5811 57.0105C82.5187 57.1974 82.4578 57.3846 82.3927 57.5706C81.622 59.7642 80.6605 61.8882 79.5304 63.9183C80.2036 61.89 80.5936 59.7 80.5987 57.6816C80.6053 55.047 79.4533 52.5588 78.2203 50.2305C77.4724 48.8178 76.6855 47.4261 75.8989 46.0344C76.1218 46.4217 75.6907 48.0432 75.6631 48.5346C75.6118 49.4466 75.5983 50.3607 75.6217 51.2739C75.6667 53.0241 75.8482 54.771 76.1638 56.4933C76.4467 58.0374 76.9921 59.4324 77.4265 60.9021C77.9134 62.5497 77.9542 64.4577 78.184 66.1662C77.287 67.5627 76.3084 68.907 75.2506 70.1865C74.398 71.2182 73.4902 72.204 72.5407 73.1472C73.3738 71.3874 74.1088 69.5283 74.6467 67.6761C75.3802 65.1498 74.8477 62.3838 74.4727 59.8422C74.0359 56.8833 73.2283 53.9961 72.4252 51.1206C71.8936 52.9158 71.4412 54.8625 71.0773 56.7057C70.6915 58.6977 70.4875 60.7251 70.4689 62.754C70.4335 66.6147 71.4811 70.3212 71.467 74.1723C71.3698 74.2572 71.275 74.346 71.1811 74.436C69.01 76.4019 66.6304 78.1356 64.0744 79.5711C63.8212 79.7133 64.0009 80.1324 64.2565 79.9887C65.9752 79.0236 67.6183 77.9298 69.1738 76.7214C70.5877 76.4244 72.0874 76.1379 73.4995 76.2723C74.8891 76.4046 75.9754 76.3407 77.3623 75.9402C80.4325 75.0537 83.2489 73.3701 85.6588 71.2908C86.8213 70.2879 87.9409 69.1359 88.4212 67.6779C86.0182 68.9559 83.4658 69.9522 80.8324 70.6398C78.3745 71.2818 75.7156 71.7282 73.4866 72.84C74.8372 71.4381 76.0903 69.9429 77.2327 68.367C78.5707 66.6234 81.5251 65.5728 83.4817 64.8123Z" fill="#DA6158"/>
<path d="M90.5938 42.0402L92.3656 42.4335C92.3935 42.4398 92.4154 42.4614 92.4217 42.4893L92.815 44.2611C92.8321 44.3379 92.9419 44.3379 92.9587 44.2611L93.352 42.4893C93.3583 42.4614 93.3799 42.4395 93.4078 42.4335L95.1796 42.0402C95.2564 42.0231 95.2564 41.9133 95.1796 41.8965L93.4078 41.5032C93.3799 41.4969 93.358 41.4753 93.352 41.4471L92.9587 39.6753C92.9416 39.5985 92.8321 39.5985 92.815 39.6753L92.4217 41.4471C92.4154 41.475 92.3938 41.4969 92.3656 41.5032L90.5938 41.8965C90.5167 41.9133 90.5167 42.0231 90.5938 42.0402Z" fill="#C4DDF9"/>
<path d="M86.0341 35.9838L87.3817 36.2829C87.403 36.2877 87.4195 36.3042 87.4243 36.3255L87.7234 37.6731C87.7363 37.7316 87.8197 37.7316 87.8329 37.6731L88.132 36.3255C88.1368 36.3042 88.1533 36.2877 88.1746 36.2829L89.5222 35.9838C89.5807 35.9709 89.5807 35.8875 89.5222 35.8743L88.1746 35.5752C88.1533 35.5704 88.1368 35.5539 88.132 35.5326L87.8329 34.185C87.82 34.1265 87.7366 34.1265 87.7234 34.185L87.4243 35.5326C87.4195 35.5539 87.403 35.5704 87.3817 35.5752L86.0341 35.8743C85.9753 35.8875 85.9753 35.9709 86.0341 35.9838Z" fill="#C4DDF9"/>
<path d="M7.2274 71.3154L5.45559 70.9221C5.42769 70.9158 5.40579 70.8942 5.39949 70.8663L5.00619 69.0945C4.98909 69.0177 4.87959 69.0177 4.86249 69.0945L4.4692 70.8663C4.4629 70.8942 4.44129 70.9161 4.41309 70.9221L2.64129 71.3154C2.56449 71.3325 2.56449 71.442 2.64129 71.4591L4.41309 71.8524C4.44099 71.8587 4.4629 71.8803 4.4692 71.9082L4.86249 73.68C4.87959 73.7571 4.98909 73.7571 5.00619 73.68L5.39949 71.9082C5.40579 71.8803 5.42739 71.8584 5.45559 71.8524L7.2274 71.4591C7.30419 71.4423 7.30419 71.3325 7.2274 71.3154Z" fill="white"/>
<path d="M11.1736 78.6311L9.82599 78.332C9.80469 78.3272 9.78819 78.3107 9.78339 78.2894L9.48429 76.9418C9.47139 76.8833 9.38799 76.8833 9.37479 76.9418L9.07569 78.2894C9.07089 78.3107 9.05439 78.3272 9.03309 78.332L7.68549 78.6311C7.62699 78.644 7.62699 78.7274 7.68549 78.7406L9.03309 79.0397C9.05439 79.0445 9.07089 79.061 9.07569 79.0823L9.37479 80.4299C9.38769 80.4884 9.47109 80.4884 9.48429 80.4299L9.78339 79.0823C9.78819 79.061 9.80469 79.0445 9.82599 79.0397L11.1736 78.7406C11.2321 78.7274 11.2321 78.644 11.1736 78.6311Z" fill="white"/>
<path d="M28.8064 21.084L27.0346 21.4773C27.0067 21.4836 26.9848 21.5052 26.9785 21.5331L26.5852 23.3049C26.5681 23.3817 26.4586 23.3817 26.4415 23.3049L26.0482 21.5331C26.0419 21.5052 26.0203 21.4833 25.9921 21.4773L24.2203 21.084C24.1432 21.0669 24.1432 20.9574 24.2203 20.9403L25.9921 20.547C26.02 20.5407 26.0419 20.5191 26.0482 20.4912L26.4415 18.7194C26.4586 18.6423 26.5681 18.6423 26.5852 18.7194L26.9785 20.4912C26.9848 20.5191 27.0064 20.541 27.0346 20.547L28.8064 20.9403C28.8835 20.9571 28.8835 21.0669 28.8064 21.084Z" fill="#C4DDF9"/>
<path d="M36.3526 14.6684L35.005 14.9675C34.9837 14.9723 34.9672 14.9888 34.9624 15.0101L34.6633 16.3577C34.6504 16.4162 34.567 16.4162 34.5538 16.3577L34.2547 15.0101C34.2499 14.9888 34.2334 14.9723 34.2121 14.9675L32.8645 14.6684C32.806 14.6555 32.806 14.5721 32.8645 14.5589L34.2121 14.2598C34.2334 14.255 34.2499 14.2385 34.2547 14.2172L34.5538 12.8696C34.5667 12.8111 34.6501 12.8111 34.6633 12.8696L34.9624 14.2172C34.9672 14.2385 34.9837 14.255 35.005 14.2598L36.3526 14.5589C36.4111 14.5721 36.4111 14.6555 36.3526 14.6684Z" fill="#C4DDF9"/>
<path d="M74.0281 43.8424C65.8069 30.8266 57.9622 17.5768 51.1603 3.76596L49.6522 0.703857L48.1444 3.76536C41.3422 17.5762 33.4972 30.8263 25.2757 43.8427C22.4695 48.2857 20.8447 53.5486 20.8447 59.1928C20.8447 75.1027 33.7423 88 49.6519 88C65.5618 88 78.4591 75.1027 78.4591 59.1928C78.4594 53.5486 76.8346 48.2854 74.0281 43.8424Z" fill="#3E74C7"/>
<path d="M74.6593 53.7502C74.6593 49.7005 72.6196 45.5323 72.5389 41.4646C64.8625 29.2117 57.5488 16.7377 51.16 3.76596L49.6519 0.703857L48.1441 3.76536C41.3419 17.5762 33.4969 30.8263 25.2754 43.8427C25.051 44.1982 24.8368 44.5606 24.6277 44.9263C24.172 47.9161 23.1328 50.6272 23.1328 53.7502C23.1328 67.9789 34.6675 79.5133 48.8959 79.5133C63.1249 79.5136 74.6593 67.9789 74.6593 53.7502Z" fill="#5587D4"/>
<mask id="mask1_6500_20624" style="mask-type:luminance" maskUnits="userSpaceOnUse" x="20" y="0" width="59" height="88">
<path d="M74.0281 43.8424C65.8069 30.8266 57.9622 17.5768 51.1603 3.76596L49.6522 0.703857L48.1444 3.76536C41.3422 17.5762 33.4972 30.8263 25.2757 43.8427C22.4695 48.2857 20.8447 53.5486 20.8447 59.1928C20.8447 75.1027 33.7423 88 49.6519 88C65.5618 88 78.4591 75.1027 78.4591 59.1928C78.4594 53.5486 76.8346 48.2854 74.0281 43.8424Z" fill="white"/>
</mask>
<g mask="url(#mask1_6500_20624)">
<path d="M67.1314 84.5436C67.0468 84.3027 66.9622 84.0618 66.8569 83.7621C67.0978 83.7987 67.2346 83.8194 67.3714 83.8398C67.3786 83.8263 67.3858 83.8128 67.393 83.7993C67.3372 83.7627 67.2859 83.7132 67.225 83.6916C66.9676 83.6004 66.8803 83.4198 66.907 83.1573C66.9184 83.0454 66.8791 82.9284 66.8908 82.8165C66.9016 82.7121 66.9196 82.5819 66.9862 82.5141C67.2178 82.2786 67.2292 81.8946 66.9496 81.6954C66.6454 81.4788 66.325 81.2688 65.9821 81.1278C65.6752 81.0015 65.6134 80.8146 65.6671 80.5341C65.6938 80.3934 65.7526 80.2539 65.752 80.1138C65.7517 79.9917 65.722 79.7943 65.647 79.7607C65.3098 79.6101 65.3212 79.3056 65.2903 79.0329C65.2162 78.3756 64.9915 77.8389 64.3804 77.4807C63.9754 77.2431 63.6355 76.8975 63.2506 76.6224C63.0877 76.506 62.9074 76.482 62.7988 76.7394C62.6755 77.0313 62.599 77.3103 62.7094 77.6298C62.7373 77.7105 62.6587 77.8851 62.5789 77.9331C62.4334 78.0204 62.2498 78.0897 62.0833 78.0876C61.642 78.0819 61.2181 78.3429 60.7615 78.1635C60.6997 78.1392 60.5755 78.2742 60.4435 78.4185C59.8642 78.1095 59.2579 77.8404 58.7182 77.4729C58.4854 77.3145 58.1494 77.1249 58.2301 76.6671C58.2658 76.4652 58.0147 76.2405 57.7378 76.1724C57.5962 76.1376 57.4465 76.0746 57.3379 75.981C57.1486 75.8181 56.9905 75.8358 56.8669 76.0269C56.6596 76.3482 56.3257 76.3917 56.0017 76.4397C55.8094 76.4682 55.639 76.4031 55.5766 76.1664C55.5493 76.0629 55.4422 75.9801 55.3705 75.8883C55.3213 75.825 55.222 75.7515 55.2334 75.7029C55.2484 75.6375 55.3402 75.5682 55.414 75.5424C55.5691 75.4878 55.738 75.4716 55.8934 75.4176C55.9912 75.3837 56.1523 75.3093 56.1523 75.2535C56.1511 74.8773 56.4049 74.7765 56.7883 74.7075C56.5984 74.5212 56.4625 74.3874 56.3377 74.265C56.2828 74.4192 56.2321 74.5623 56.1811 74.7054C56.0305 74.619 55.8796 74.5326 55.7293 74.4456C55.72 74.4402 55.714 74.4297 55.7062 74.4219C55.3066 74.0076 55.3153 74.0175 54.8887 74.4003C54.6424 74.6214 54.3751 74.8245 54.0949 75C53.7481 75.2175 53.3923 75.1272 53.0605 74.9376C52.8622 74.8242 52.735 74.7339 52.6426 75.0723C52.603 75.2175 52.3285 75.3477 52.1398 75.3885C51.9745 75.4245 51.7798 75.3267 51.5983 75.2868C51.2953 75.2205 51.2092 74.9898 51.4027 74.7471C51.4564 74.6799 51.5329 74.6295 51.6022 74.5761C51.67 74.5236 51.7423 74.4768 51.7699 74.4576C51.3061 73.8432 50.8543 73.2447 50.3866 72.6252C50.0806 72.6912 49.7212 72.756 49.5253 72.3684C49.4611 72.2415 49.4383 71.9973 49.5142 71.9151C49.7017 71.7117 49.963 71.6388 50.2234 71.8956C50.3005 71.5812 50.0965 71.4783 49.9321 71.4186C49.7863 71.3655 49.6171 71.3538 49.4818 71.5617C49.2775 71.8758 49.024 72.1671 48.7507 72.4251C48.2458 72.9018 47.7235 72.8442 47.2579 72.3153C47.1547 72.1983 47.0185 72.1005 46.8802 72.0264C46.5604 71.8554 46.5091 71.646 46.7341 71.3514C46.9144 71.1156 47.1085 70.8879 47.2624 70.6356C47.3287 70.527 47.3086 70.3659 47.3278 70.2285C47.1418 70.215 46.9153 70.1274 46.7779 70.2024C46.4302 70.3926 46.1896 70.6932 46.0834 71.1042C45.9772 71.514 45.5086 71.7489 44.9917 71.7276C44.8825 71.7231 44.7706 71.7903 44.6167 71.8377C44.7445 71.0493 45.3958 70.7733 45.9025 70.3773C45.8836 70.3542 45.8647 70.3314 45.8455 70.3083C45.763 70.3482 45.6802 70.3881 45.5875 70.4331C45.6163 70.1733 46.0186 69.7215 46.2754 69.654C46.6702 69.5502 47.0752 69.4782 47.4601 69.3468C47.7127 69.2604 47.9374 69.093 48.2134 68.9406C48.0952 68.8026 48.0364 68.742 47.9872 68.6745C47.8093 68.4315 47.8861 68.1048 48.1756 68.0397C48.7384 67.9131 48.9058 67.3674 49.2898 67.056C49.3051 67.0434 49.3144 67.0185 49.3183 66.9975C49.342 66.8718 48.8593 66.1626 48.7384 66.1158C48.6421 66.0783 48.532 66.0276 48.4744 65.949C48.3367 65.7609 48.2251 65.5623 47.9482 65.5533C47.8945 65.5515 47.8498 65.4462 47.791 65.4015C47.5042 65.1825 47.2192 64.9602 46.921 64.7577C46.8652 64.7199 46.7521 64.7715 46.6654 64.7736C46.4344 64.779 46.2031 64.7751 45.9721 64.7847C45.898 64.7877 45.8083 64.8006 45.754 64.8441C45.4645 65.076 45.1768 65.3112 44.9029 65.5608C44.7526 65.6976 44.6341 65.6898 44.512 65.5446C44.4349 65.4528 44.3455 65.3634 44.2984 65.2569C44.2657 65.1828 44.2585 65.0427 44.3044 64.9986C44.4739 64.8345 44.6701 64.6977 44.8567 64.5504C44.5618 64.1217 44.6086 63.9942 45.0565 63.6636C45.5326 63.312 45.9745 62.9145 46.4416 62.5506C46.6288 62.4048 46.8304 62.2605 47.0491 62.1765C47.518 61.9965 47.6353 61.5786 47.8021 61.1823C47.8462 61.077 47.9197 60.9783 47.9986 60.8946C48.3829 60.4869 48.7261 60.0774 48.5368 59.4462C48.4039 59.004 48.3193 58.5471 48.2017 58.0488C48.0958 58.1451 48.031 58.197 47.974 58.2564C47.6494 58.5969 47.3218 58.6566 46.9255 58.4304C46.5607 58.2222 46.1989 58.0077 45.8437 57.783C45.7663 57.7341 45.7219 57.6318 45.6637 57.5532C45.3736 57.1611 45.0949 56.76 44.791 56.379C44.4859 55.9965 44.1562 55.6338 43.8373 55.2621C43.8043 55.284 43.7713 55.3056 43.7383 55.3275C43.8949 55.728 44.0497 56.1291 44.2084 56.5287C44.3572 56.9031 44.2291 57.1338 43.8199 57.09C43.4026 57.0453 42.9949 56.901 42.5863 56.7891C42.2626 56.7006 41.9425 56.5974 41.6227 56.4948C41.5417 56.469 41.449 56.439 41.3935 56.3808C40.8142 55.7709 40.0939 55.3584 39.3397 55.0371C39.0433 54.9108 38.6125 54.9675 38.2855 55.0731C37.639 55.2822 37.0282 55.5981 36.3916 55.8411C36.0421 55.9743 35.5519 55.6965 35.35 55.3944C35.2216 55.2024 34.978 55.0869 34.7848 54.939C34.5121 54.7299 34.2511 54.6906 33.9274 54.882C33.5314 55.1163 32.989 55.1148 32.7181 54.8454C32.4565 54.5853 32.2267 54.6132 31.9525 54.5415C31.5202 54.4287 31.111 54.2274 30.6925 54.0633C29.9848 53.7858 29.5879 53.229 29.3278 52.5477C29.2222 52.2711 29.1259 51.99 28.9999 51.7227C28.7512 51.1947 28.9315 50.7801 29.4646 50.5491C29.7802 50.4126 30.0775 50.2116 30.3457 49.9932C30.8503 49.5825 31.3606 49.2066 31.9894 48.9858C32.2717 48.8865 32.5294 48.6483 32.737 48.4182C33.2758 47.8206 33.9844 47.7666 34.7074 47.7303C34.7398 47.7288 34.7821 47.7285 34.8043 47.7468C35.4436 48.2691 35.8981 47.5986 36.4177 47.4567C36.6988 47.3799 36.9037 47.0085 37.1317 46.7601C37.3237 46.551 37.474 46.2948 37.6921 46.1223C37.8274 46.0155 38.0767 45.9519 38.2375 45.9981C38.6599 46.1193 38.9074 45.867 39.1621 45.6357C39.2092 45.5928 39.1633 45.3807 39.0976 45.2943C38.9518 45.1029 38.965 44.9472 39.142 44.8104C39.5806 44.4711 39.3997 44.001 39.199 43.6995C38.9152 43.2726 38.5342 42.9078 38.524 42.3273C38.5195 42.066 38.3458 41.8098 38.2645 41.5467C38.1739 41.253 38.1073 40.9872 38.3401 40.6815C38.5129 40.455 38.5228 40.1085 38.6281 39.8241C38.6728 39.7038 38.7562 39.5412 38.857 39.5094C39.1438 39.4191 39.2767 39.2136 39.406 38.9736C39.5305 38.7423 39.655 38.4975 39.835 38.3124C40.1221 38.0178 40.4662 37.875 40.9141 37.9791C41.3572 38.0823 41.7775 37.9521 42.1696 37.6968C42.3205 37.5987 42.553 37.5639 42.7357 37.59C43.0978 37.6419 43.4536 37.7475 43.807 37.848C43.9804 37.8972 44.1427 37.9848 44.3506 38.0721C44.2747 37.7511 44.2003 37.4955 44.1607 37.2348C44.1463 37.1403 44.2159 37.0332 44.2471 36.9318C44.3803 36.9768 44.5195 37.0098 44.6431 37.0731C44.6842 37.0941 44.7154 37.2009 44.7001 37.2537C44.6071 37.5771 44.7955 37.8042 44.8888 38.0385C44.8744 38.1741 44.8018 38.343 44.8567 38.439C44.995 38.6811 45.2413 38.8701 45.5224 38.8098C46.0693 38.6925 46.4518 38.9166 46.8289 39.2646C46.9393 39.3666 47.1568 39.3792 47.323 39.3735C47.3623 39.372 47.3971 39.1317 47.4259 38.9997C47.4346 38.9592 47.4091 38.9121 47.4124 38.8689C47.4283 38.6655 48.1402 38.19 48.3181 38.2905C48.5779 38.4372 48.802 38.364 49.0435 38.2707C49.6195 38.0487 49.882 38.1921 50.0152 38.8074C50.0875 39.1416 50.1421 39.48 50.2003 39.8172C50.2333 40.0086 50.3404 40.0653 50.5288 40.0452C50.9044 40.0047 51.1747 39.6921 51.2107 39.3144C51.2248 39.1662 51.3661 39.0306 51.4495 38.889C51.595 38.9847 51.7573 39.063 51.8794 39.1824C51.9529 39.2544 51.9637 39.3903 52.003 39.4977C52.0354 39.4908 52.0678 39.4842 52.1002 39.4773C52.0756 39.3159 52.0393 39.1554 52.0297 38.9931C52.0216 38.8593 51.9967 38.676 52.069 38.6034C52.1341 38.538 52.3204 38.5929 52.4533 38.5947C52.4947 38.5953 52.5364 38.5968 52.666 38.6001C52.5472 38.3334 52.4803 38.0895 52.3417 37.8975C52.1884 37.6854 52.0528 37.4841 52.1977 37.2393C52.3228 37.0278 52.5244 36.9657 52.771 37.0755C52.8175 37.0962 52.9204 37.0224 52.9816 36.9729C53.1589 36.8289 53.2924 36.8106 53.4403 37.0299C53.5318 37.1652 53.692 37.2558 53.8261 37.3602C53.8921 37.4115 54.0034 37.4319 54.0352 37.4955C54.1963 37.8198 54.3397 37.713 54.5236 37.5123C54.727 37.29 55.0603 37.2978 55.2349 37.5378C55.4485 37.8315 55.645 38.1414 55.8139 38.4627C55.9351 38.6934 55.7179 38.8704 55.3711 38.8203C55.3945 39.1524 55.1704 39.2211 54.9085 39.33C54.6232 39.4485 54.4063 39.7221 54.1291 39.8721C53.7304 40.0881 53.8579 40.6023 53.4811 40.8669C53.9881 41.0511 54.3529 41.3505 54.4588 41.8794C55.2346 41.4951 55.654 41.6313 55.9735 42.3738C55.8316 42.4239 55.6825 42.4572 55.5547 42.5283C55.4803 42.5697 55.3936 42.6726 55.3957 42.7458C55.3975 42.8193 55.4908 42.9279 55.5655 42.951C55.6309 42.9714 55.7362 42.9081 55.807 42.858C55.9594 42.7509 56.1007 42.6285 56.2468 42.5124C56.5189 42.2964 56.5009 42.1779 56.2444 41.9397C56.0764 41.7837 55.9627 41.5689 55.8259 41.3796C55.6381 41.1195 55.7506 40.8693 55.9696 40.7637C56.3896 40.5612 56.8444 40.4289 57.2902 40.2852C57.3529 40.2651 57.4591 40.3305 57.526 40.3815C57.7954 40.5873 58.1248 40.7589 58.3015 41.0286C58.4563 41.2653 58.6345 41.4351 58.8409 41.6106C59.2021 41.9184 59.7025 42.0954 60.0511 41.9484C60.475 41.7696 60.676 41.9136 60.9364 42.1284C61.0528 42.2244 61.1611 42.3309 61.2673 42.4386C61.495 42.6696 61.7209 42.9024 61.9438 43.1382C62.0359 43.2354 62.1727 43.3314 62.1946 43.446C62.2384 43.6767 62.3803 43.8597 62.4493 44.0535C62.6284 44.5569 63.1186 44.9148 63.1045 45.4968C63.0955 45.867 63.097 46.2372 63.0877 46.6071C63.0868 46.6422 63.0484 46.6938 63.0145 46.7082C62.7988 46.8021 62.8408 46.9653 62.8255 47.1612C62.7817 47.7258 62.6683 48.285 62.584 48.8466C62.5744 48.9108 62.5825 48.9774 62.5726 49.0416C62.524 49.3602 62.5156 49.6815 62.1619 49.8708C61.8991 50.0118 61.9174 50.0463 61.969 50.3181C62.1862 50.2032 62.4022 50.1096 62.5942 49.9806C62.7322 49.8879 62.8468 49.7769 62.9836 49.9557C63.1117 50.1234 63.247 50.2962 63.0511 50.5104C63.0016 50.5644 62.9314 50.6445 62.941 50.7003C62.9878 50.97 63.0808 51.2442 62.5927 51.2898C62.6263 51.324 62.6599 51.3579 62.6935 51.3921C62.8216 51.3618 62.9491 51.312 63.0787 51.3063C63.2257 51.2997 63.4846 51.2964 63.5035 51.3546C63.5884 51.6138 63.6088 51.8952 63.6346 52.1703C63.6358 52.1832 63.4645 52.212 63.3298 52.2441C63.3892 52.3437 63.4342 52.4514 63.5071 52.5348C63.6673 52.7181 63.8029 52.8936 63.6139 53.1387C63.5878 53.1723 63.586 53.2518 63.6076 53.2908C63.7699 53.5866 63.9409 53.8773 64.0861 54.1293C64.2493 54.1284 64.4392 54.0882 64.5904 54.1473C64.6444 54.1683 64.5982 54.4296 64.6102 54.5802C64.6195 54.6969 64.639 54.8142 64.6702 54.927C64.7638 55.2657 64.8775 55.5801 64.6402 55.9353C64.5154 56.1219 64.5451 56.4123 64.5049 56.6556C64.5553 56.6625 64.6054 56.6694 64.6555 56.6763C64.6744 56.5596 64.6936 56.4426 64.7056 56.3691C64.9513 56.2818 65.1715 56.1657 65.4031 56.1351C65.5432 56.1165 65.7031 56.2251 65.8498 56.286C66.0319 56.3616 66.2068 56.4549 66.3904 56.526C66.5104 56.5725 66.6523 56.571 66.7639 56.6298C67.2628 56.8935 67.3039 57.0435 66.901 57.4527C66.7264 57.6297 66.4984 57.7542 66.2755 57.9168C66.4201 58.0461 66.4966 58.3653 66.8785 58.158C66.8902 58.1844 66.9019 58.2108 66.9136 58.2372C66.8572 58.3386 66.7948 58.4373 66.7456 58.5423C66.7039 58.632 66.628 58.7448 66.6526 58.8195C66.7615 59.1495 66.9013 59.4696 67.0381 59.8128C67.0423 59.811 67.1158 59.8026 67.1548 59.7615C67.4284 59.4741 67.5889 59.646 67.7881 59.8728C67.9945 60.1077 68.1799 60.3375 68.1997 60.6588C68.6875 60.6234 68.9863 60.8559 69.172 61.3083C69.3571 61.7589 69.6097 62.1813 69.8074 62.6271C69.9313 62.9067 70.0495 63.2004 70.0978 63.4998C70.1764 63.9867 70.5091 64.3122 70.8463 64.5603C71.1346 64.7721 71.1829 65.0688 71.35 65.3163C71.4424 65.4534 71.4472 65.6529 71.4772 65.8269C71.4892 65.8968 71.4886 66.018 71.4505 66.0399C71.1193 66.2298 71.2738 66.5265 71.278 66.7839C71.284 67.1541 71.3317 67.5249 71.3218 67.8942C71.3071 68.4525 70.8946 68.6871 70.4035 68.4159C70.3645 68.4522 70.3243 68.5227 70.2739 68.5305C69.8452 68.5992 69.9661 68.889 70.0204 69.1479C70.0612 69.3423 70.1446 69.5328 70.1533 69.7275C70.1605 69.8847 70.0756 70.044 70.0477 70.2051C70.015 70.3926 69.9766 70.584 69.9829 70.7724C69.9898 70.9779 70.0534 71.1267 70.3342 71.1483C70.4443 71.1567 70.5787 71.4387 70.6201 71.6151C70.687 71.9025 70.6828 72.2061 70.7155 72.5022C70.7482 72.7971 70.639 72.9927 70.3474 73.0812C70.1785 73.1322 70.0009 73.1742 69.8509 73.2609C69.7564 73.3155 69.6451 73.4517 69.6532 73.5411C69.6607 73.6233 69.8122 73.7451 69.9103 73.7559C70.1377 73.7802 70.1335 73.8777 70.1536 74.0778C70.2037 74.5746 70.3228 75.0648 70.4224 75.5562C70.4305 75.5967 70.4995 75.6528 70.5415 75.654C70.9177 75.6648 70.9693 75.9774 71.0284 76.2261C71.1535 76.7514 71.2336 77.2881 71.3239 77.8212C71.3869 78.1926 71.3968 78.5385 71.1625 78.891C70.9267 79.2456 70.9009 79.6248 71.1199 80.0712C71.3143 80.4669 71.3323 80.9637 71.3647 81.4203C71.398 81.8895 71.3545 82.3638 71.2807 82.8483C71.2282 82.6923 71.1757 82.5363 71.1229 82.3803C71.0998 82.3866 71.0767 82.3929 71.0539 82.3992C71.1871 82.8441 71.3206 83.2887 71.4532 83.7339C71.4877 83.8491 71.5225 83.9646 71.5513 84.0813C71.5615 84.123 71.5348 84.1896 71.557 84.2106C72.0694 84.6918 71.6713 85.3752 71.9377 85.9143C72.0241 86.0889 72.0871 86.3043 72.0703 86.4927C72.0517 86.7015 71.917 86.8971 71.8543 87.1047C71.7397 87.4836 71.6479 87.8694 71.5321 88.2477C71.476 88.4307 71.3707 88.599 71.3182 88.7829C71.2819 88.9104 71.2651 89.061 71.2966 89.187C71.3731 89.493 71.3497 89.7786 71.1871 90.0447C70.9993 90.3525 70.7941 90.3417 70.5733 90.0453C70.5067 89.9559 70.3924 89.8755 70.2853 89.8473C69.9715 89.7648 69.8509 89.4828 69.9031 89.1594C69.9625 88.794 69.9592 88.4088 69.9112 88.0416C69.8983 87.9417 69.6334 87.8265 69.4729 87.8061C69.2833 87.7821 69.0823 87.8691 68.8849 87.8787C68.5612 87.8943 68.4163 87.7161 68.4253 87.3888C68.428 87.2925 68.3803 87.1533 68.3077 87.1035C67.8553 86.7915 67.5157 86.3898 67.2649 85.9047C67.2271 85.8315 67.1233 85.7907 67.0897 85.7172C67.0243 85.5732 66.9238 85.4037 66.9514 85.2681C66.9997 85.032 66.9316 84.9096 66.7864 84.7218C66.5908 84.4689 66.3688 84.3336 66.097 84.1869C65.8483 84.0525 65.6608 83.9826 65.4016 84.0936C65.1652 84.1947 64.9405 84.2178 64.8835 83.8404C64.5511 83.9949 64.285 83.8803 63.9736 83.772C63.3793 83.5659 62.917 83.2518 62.5384 82.7526C62.3707 82.5315 62.0818 82.4022 61.8397 82.2252C62.1253 81.9588 62.5486 82.0032 62.7574 82.2375C62.8222 82.3101 63.0127 82.3377 63.1132 82.2996C63.4717 82.1646 63.8077 81.969 64.168 81.8403C64.7734 81.6237 65.2741 81.855 65.7214 82.2642C65.8672 82.3974 66.0295 82.5126 66.2014 82.6497C66.1615 82.6794 66.1114 82.7163 66.0529 82.7595C66.2173 82.8774 66.3658 82.9839 66.5389 83.1078C66.5038 83.1801 66.4543 83.2815 66.3847 83.4249C66.136 83.1573 65.9221 83.2254 65.6647 83.4036C65.4967 83.52 65.2597 83.6334 65.0347 83.4021C64.9765 83.3424 64.7962 83.4015 64.7164 83.4045C64.8718 83.5218 65.044 83.6253 65.1826 83.7627C65.3965 83.9745 65.5702 83.7708 65.7103 83.6958C66.2074 83.4294 66.7162 83.6343 66.8335 84.1863C66.8518 84.2727 66.8563 84.3618 66.8752 84.4479C66.9124 84.6153 67.0036 84.6393 67.1344 84.5388C67.1755 84.7356 67.27 84.9369 67.249 85.1247C67.2064 85.5003 67.2718 85.6788 67.6873 85.8993C67.5853 85.7595 67.5022 85.6641 67.4407 85.5564C67.3864 85.4613 67.297 85.3302 67.3258 85.2534C67.4359 84.9576 67.3219 84.7455 67.1314 84.5436ZM47.9644 41.0322C48.0055 41.1324 48.0448 41.2338 48.088 41.3331C48.2452 41.6925 48.4078 42.0501 48.5599 42.4116C48.6061 42.5217 48.6187 42.6459 48.658 42.7596C48.7822 43.1202 48.9325 43.4736 49.0321 43.8408C49.1005 44.0925 49.0432 44.3052 48.7231 44.3928C48.454 44.4666 48.2053 44.6154 47.9197 44.7441C48.178 45.4578 47.4955 46.1034 47.7451 46.8336C48.1546 46.8192 48.1381 46.8294 48.3469 47.1666C48.5824 47.5476 48.4474 47.9361 48.4306 48.327C48.4087 48.8418 48.2323 49.3779 48.6343 49.8438C48.7057 49.9266 48.7174 50.07 48.7348 50.1885C48.8089 50.6919 48.9769 50.8239 49.5538 50.7852C49.4971 50.6688 49.4476 50.5638 49.3951 50.4603C49.246 50.1657 49.3003 50.0403 49.6096 49.9188C49.6633 49.8975 49.7392 49.7844 49.7254 49.7613C49.5067 49.3965 49.6108 48.8781 49.1323 48.627C48.8254 48.4659 48.7468 48.0297 48.9208 47.7213C49.0741 47.4495 49.249 47.1876 49.4377 46.9389C49.5775 46.7544 49.7341 46.5687 49.9204 46.4364C50.1424 46.2786 50.146 46.1373 49.9438 46.0038C49.7458 45.8733 49.5118 45.798 49.3048 45.6789C49.1131 45.5685 48.8059 45.5535 48.7963 45.2658C48.7891 45.0522 48.8608 44.8269 48.9412 44.6244C48.976 44.5371 49.1218 44.4447 49.2172 44.4447C49.3057 44.4447 49.4098 44.5518 49.4776 44.6355C49.5343 44.7051 49.549 44.8092 49.5802 44.8926C49.888 44.8365 50.1142 44.7603 50.0884 44.394C50.0797 44.2701 50.2003 44.1375 50.26 44.0082C50.3116 43.8966 50.3611 43.7838 50.4112 43.6716C50.2555 43.6635 50.1655 43.7265 50.0662 43.7526C49.8895 43.7988 49.708 43.8435 49.5271 43.8513C49.2265 43.8642 49.1341 43.6359 49.105 43.3974C49.0732 43.137 49.2604 43.0548 49.48 43.0401C49.8421 43.0158 50.2051 43.0005 50.5498 42.9822C50.4286 42.6468 50.3257 42.3468 50.2087 42.0522C50.1892 42.0027 50.1145 41.9655 50.0575 41.9424C49.9099 41.883 49.7575 41.8347 49.5994 41.7789C49.5886 41.7951 49.564 41.8197 49.5541 41.8491C49.5028 42.0039 49.4554 42.1599 49.4065 42.3156C49.2517 42.2232 49.0921 42.1377 48.9442 42.0354C48.8842 41.994 48.8179 41.9205 48.8089 41.8539C48.7435 41.3796 48.3412 41.235 47.9644 41.0322ZM58.2166 46.905C58.1887 46.7862 58.1824 46.6956 58.1464 46.6191C58.0294 46.3695 57.8806 46.1331 57.784 45.8766C57.6787 45.5976 57.6529 45.2466 57.901 45.0789C58.1653 44.9004 58.5241 44.8584 58.8454 44.7717C58.8874 44.7603 58.9507 44.841 59.008 44.8722C59.2756 45.0186 59.5399 45.1719 59.8156 45.3012C59.8837 45.333 59.9896 45.2835 60.0781 45.2715C60.0364 45.1713 60.0223 45.027 59.9476 44.9808C59.8057 44.8929 59.6092 44.8908 59.4712 44.7993C59.2162 44.6301 58.9753 44.4342 58.7494 44.2269C58.3906 43.8975 57.9166 43.9329 57.6202 44.3145C57.4822 44.4918 57.2905 44.568 57.0634 44.4678C56.9032 44.3973 56.7427 44.3265 56.5195 44.2278C56.5705 44.3475 56.6134 44.4036 56.6143 44.46C56.6161 44.5761 56.5951 44.6925 56.5837 44.8086C56.434 44.7795 56.2786 44.7657 56.1379 44.7126C56.0926 44.6955 56.0878 44.5746 56.0614 44.5023C55.9738 44.2614 55.4908 44.0016 55.2946 44.0637C55.3867 44.3658 55.4839 44.6643 55.5682 44.9667C55.6234 45.1647 55.7446 45.2115 55.939 45.2055C56.3716 45.1917 56.8051 45.2022 57.2074 45.2025C57.2413 45.3462 57.2314 45.4872 57.2965 45.5487C57.5833 45.8187 57.6802 46.1568 57.712 46.5282C57.736 46.8096 57.8791 46.9446 58.2166 46.905ZM52.8928 48.9756C52.6177 48.6594 52.1737 48.6876 51.7636 48.6297C51.733 48.6255 51.6367 48.7659 51.6511 48.8154C51.7144 49.0308 51.7879 49.2483 51.8938 49.4451C52.0972 49.8231 52.2961 50.1681 52.1287 50.6445C52.0309 50.9232 52.0975 51.2643 52.1164 51.5754C52.1206 51.6435 52.2358 51.7047 52.3 51.7692C52.3519 51.7128 52.4116 51.6615 52.4542 51.5988C52.5214 51.4998 52.5685 51.3861 52.6399 51.2904C52.9381 50.8893 52.9408 50.5152 52.6579 50.1102C52.5934 50.0175 52.5148 49.8765 52.5424 49.7886C52.6231 49.53 52.7539 49.2867 52.8928 48.9756ZM44.1649 54.3171C44.1898 54.3444 44.2144 54.3714 44.2393 54.3987C44.3782 54.3321 44.5519 54.2979 44.65 54.1932C45.0241 53.7939 45.6067 53.5782 45.7459 52.9686C45.7519 52.9422 45.7879 52.9128 45.8161 52.9026C46.2799 52.7364 46.5787 52.3755 46.8793 52.0137C47.0284 51.8346 47.1919 51.6678 47.3488 51.4953C47.3236 51.4695 47.2987 51.4434 47.2735 51.4173C47.2066 51.4419 47.1184 51.4473 47.0764 51.4944C46.7593 51.8499 46.1968 51.8553 45.9391 52.299C45.9025 52.362 45.7918 52.4013 45.709 52.4154C45.3889 52.4703 45.1858 52.6689 45.0139 52.926C44.9425 53.0328 44.8378 53.1195 44.7406 53.2068C44.4034 53.5098 44.302 53.9214 44.1649 54.3171ZM54.4015 54.5391C54.4195 54.1722 54.2269 53.9721 53.9797 53.817C53.8711 53.7489 53.7424 53.649 53.6317 53.6592C53.17 53.7024 52.9069 54.0699 52.7071 54.4092C52.555 54.6675 52.408 54.7035 52.1839 54.6456C51.6619 54.5103 51.5629 54.5703 51.5476 55.1061C51.5443 55.2264 51.5815 55.4352 51.6421 55.4517C51.7684 55.4865 51.9334 55.4463 52.0627 55.3905C52.309 55.2846 52.5442 55.1511 52.7785 55.0194C52.9186 54.9408 53.0662 54.8616 53.1787 54.7506C53.3305 54.6009 53.4517 54.42 53.5861 54.2529C53.7463 54.0537 53.9044 54.1122 54.0649 54.2544C54.175 54.3516 54.2893 54.4443 54.4015 54.5391Z" fill="#7BC998"/>
<path d="M39.1198 21.8458C39.301 21.6508 39.4822 21.4558 39.7093 21.2113C39.5359 21.2269 39.4063 21.2383 39.2443 21.253C39.2011 20.6101 39.2275 19.9954 39.6466 19.4737C39.7447 19.3519 39.9079 19.276 40.0525 19.1998C40.2256 19.1083 40.318 18.9982 40.3063 18.7846C40.2961 18.601 40.3408 18.4135 40.3684 18.2287C40.3987 18.0256 40.3597 17.8792 40.1209 17.8498C39.8887 17.821 39.7648 17.6698 39.754 17.4475C39.7414 17.1895 39.7855 16.9261 39.7495 16.6729C39.7258 16.5064 39.6262 16.3369 39.5212 16.1983C39.3061 15.9139 39.0757 15.6835 38.6425 15.8254C38.3965 15.9058 38.1046 15.8335 37.8382 15.8677C37.693 15.8863 37.5451 15.9652 37.4206 16.0495C36.8308 16.4488 36.7375 16.7662 37.0891 17.374C37.1743 17.521 37.4221 17.5774 37.6003 17.6653C37.6738 17.7016 37.8229 17.698 37.8313 17.7358C37.9012 18.0514 37.9798 18.3718 37.9852 18.6916C37.9879 18.8572 37.3687 18.9313 37.1437 18.8356C36.9943 18.772 36.82 18.7477 36.6559 18.7429C36.4132 18.736 36.367 18.8896 36.4096 19.1014C36.4417 19.2598 36.4705 19.4218 36.4738 19.5826C36.481 19.9366 36.3553 20.0746 35.9962 20.1295C35.8546 20.1511 35.71 20.1538 35.5684 20.1757C34.9693 20.2684 34.711 20.6944 34.8964 21.274C34.9249 21.3634 34.9405 21.457 34.9666 21.5668C34.5325 21.4147 34.5055 21.3562 34.5676 20.7289C34.5064 20.8012 34.4638 20.8516 34.3921 20.9362C34.3675 20.8315 34.3144 20.7367 34.3411 20.6998C34.6225 20.3107 34.6369 19.798 35.0185 19.4344C35.2882 19.1773 35.4844 18.7999 35.4763 18.3589C35.4712 18.0877 35.5861 17.8159 35.6284 17.5414C35.6623 17.3203 35.7373 17.0725 35.6734 16.8757C35.497 16.333 35.5891 15.8197 35.719 15.2947C35.8057 14.9437 35.8744 14.5876 35.9404 14.2321C36.0127 13.8433 36.2245 13.6141 36.6178 13.5139C36.9679 13.4248 37.3939 12.8734 37.4056 12.5284C37.3174 12.5731 37.2457 12.6382 37.1725 12.6397C37.0534 12.6427 36.8692 12.6421 36.829 12.574C36.7726 12.4783 36.7963 12.3115 36.8344 12.1903C36.8836 12.0337 36.9739 11.8882 37.06 11.7457C37.1131 11.6581 37.1773 11.5375 37.2598 11.5147C37.519 11.4424 37.5904 11.2639 37.6339 11.0302C37.6567 10.9084 37.7209 10.7242 37.8073 10.6966C38.1481 10.5874 38.3296 10.2937 38.5915 10.1086C38.9467 9.85778 39.1555 9.53799 39.349 9.18159C39.3595 9.16239 39.3787 9.14048 39.376 9.12248C39.2914 8.57468 39.7774 8.37129 40.0384 8.03589C40.2202 7.80219 40.4302 7.59008 40.6345 7.37468C40.6918 7.31438 40.7665 7.26158 40.8436 7.23008C41.1901 7.08938 41.5318 6.92649 41.8912 6.83199C42.1996 6.75099 42.529 6.74438 42.8503 6.71798C43.1962 6.68978 43.5118 6.58269 43.7122 6.29529C43.8664 6.07419 43.9741 5.81709 44.077 5.56539C44.1889 5.29209 44.3734 5.15769 44.6632 5.09558C44.7994 5.06649 44.9071 4.90388 45.028 4.80188C45.0139 4.77518 44.9998 4.74878 44.9857 4.72238C44.8723 4.71008 44.7589 4.69749 44.6248 4.68279C44.5339 4.49349 44.5018 4.32578 44.6878 4.13888C44.8087 4.01768 44.8666 3.83378 44.9764 3.63488C44.9599 3.63698 45.0004 3.62799 45.0409 3.62799C45.6133 3.62679 45.8449 3.43268 45.9541 2.86239C45.9664 2.79759 45.9664 2.72469 45.9973 2.67009C46.2154 2.28399 46.4398 1.90118 46.6636 1.51808C46.6801 1.49018 46.7302 1.45719 46.7245 1.44429C46.5592 1.07709 46.9279 0.799586 46.8883 0.452786C46.8682 0.278186 46.8727 0.100885 46.8676 -0.0752144C46.8664 -0.119314 46.8892 -0.172713 46.8715 -0.206014C46.687 -0.554314 46.5004 -0.901413 46.3051 -1.24371C46.258 -1.32621 46.1896 -1.41202 46.1089 -1.45642C45.9772 -1.52902 45.8227 -1.62411 45.6865 -1.61211C45.1396 -1.56411 44.8891 -1.84012 45.0028 -2.37352C45.0766 -2.72062 44.8012 -2.87421 44.5669 -3.03951C44.3584 -3.18651 44.1424 -3.32511 43.9504 -3.49131C43.8694 -3.56151 43.8376 -3.69171 43.7911 -3.79791C43.765 -3.85791 43.7713 -3.93651 43.735 -3.98632C43.4686 -4.35231 43.2157 -4.73151 42.9157 -5.06811C42.7693 -5.23251 42.6658 -5.38072 42.727 -5.58592C42.7468 -5.65252 42.9088 -5.74491 42.9568 -5.72211C43.1344 -5.63811 43.3216 -5.53791 43.4506 -5.39481C43.7959 -5.01201 44.1106 -4.60191 44.4463 -4.21011C44.4679 -4.18491 44.5657 -4.22481 44.683 -4.24311C44.6275 -4.12671 44.5939 -4.05621 44.5615 -3.98841C44.677 -3.86811 44.7931 -3.74691 44.8888 -3.64731C44.9575 -3.73431 45.0307 -3.79791 45.0664 -3.87831C45.1222 -4.00401 45.2089 -4.15311 45.1834 -4.27071C45.1234 -4.54761 45.1609 -4.72791 45.4978 -4.76571C45.328 -5.30391 45.6871 -5.60181 45.9952 -5.90571C46.2022 -6.10971 46.4416 -6.14511 46.7011 -5.93001C47.029 -5.65821 47.2162 -5.72871 47.3524 -6.12621C47.416 -6.31191 47.4691 -6.50901 47.5738 -6.67071C47.6458 -6.78201 47.7901 -6.88671 47.9164 -6.90771C47.9989 -6.92151 48.1285 -6.79731 48.2002 -6.70581C48.3793 -6.47781 48.5374 -6.23331 48.7366 -5.94862C48.7816 -6.05661 48.8299 -6.16281 48.8704 -6.27141C48.9178 -6.39861 48.9505 -6.53151 49.0051 -6.65541C49.0498 -6.75741 49.1434 -6.93892 49.1701 -6.93142C49.3477 -6.87892 49.5367 -6.81382 49.6774 -6.69832C49.9108 -6.50722 50.1226 -6.28521 50.3203 -6.05601C50.4319 -5.92671 50.4925 -5.75422 50.584 -5.60632C50.7706 -5.30512 50.965 -5.00871 51.1516 -4.70781C51.2311 -4.57941 51.34 -4.45162 51.3661 -4.31092C51.5122 -3.52042 51.6553 -2.72842 51.7627 -1.93192C51.8224 -1.49002 51.811 -1.03821 51.8311 -0.590915C51.8326 -0.558515 51.8413 -0.508414 51.8248 -0.496114C51.4909 -0.248614 51.7462 0.0690866 51.7063 0.348386C51.6541 0.712586 51.8893 0.973285 51.9265 1.29308C51.9379 1.39178 51.8848 1.49829 51.841 1.69089C51.9076 1.80279 52.0345 2.01579 52.174 2.25039C52.198 2.19999 52.2205 2.15259 52.2676 2.05389C52.2883 2.08629 52.3201 2.11268 52.3198 2.13878C52.3177 2.41238 52.3453 2.66589 52.5319 2.89869C52.5805 2.95929 52.4668 3.15038 52.4278 3.28028C52.8505 3.47318 52.8772 3.54128 52.7206 3.98498C52.7032 4.03418 52.6762 4.10048 52.6948 4.13948C52.9291 4.63148 52.8751 5.14599 52.8313 5.66199C52.8202 5.79219 52.8217 5.93078 52.8559 6.05499C52.8781 6.13598 52.96 6.23618 53.0341 6.25538C53.092 6.27038 53.188 6.18398 53.251 6.12578C53.3797 6.00729 53.4976 5.87709 53.6806 5.68959C53.5183 5.52879 53.3113 5.38929 53.2021 5.19489C53.1166 5.04279 53.1028 4.81058 53.1454 4.63538C53.2051 4.38998 53.3278 4.15269 53.4625 3.93579C53.5165 3.84879 53.6833 3.76748 53.7817 3.78399C54.1459 3.84519 54.4945 4.00629 54.8797 3.86139C54.9343 3.84099 55.0807 3.94598 55.1194 4.02519C55.2007 4.19108 55.2895 4.37979 55.285 4.55679C55.2682 5.22669 55.4713 5.89958 55.2667 6.56588C55.2016 6.77798 55.1236 6.98588 55.0471 7.19438C54.9616 7.42778 55.2112 8.26598 55.4245 8.41568C55.7515 8.64548 55.9429 8.94159 55.948 9.35289C55.9513 9.61238 55.7926 9.69279 55.5898 9.66188C55.0477 9.57849 54.5095 9.95348 54.433 10.579C54.424 10.6522 54.4873 10.7371 54.526 10.8118C54.5608 10.879 54.6127 10.9372 54.6469 11.0047C54.6589 11.0284 54.6415 11.0671 54.6358 11.1106C54.3478 11.0572 54.0643 11.0047 53.6746 10.9324C53.8747 11.1475 54.0046 11.2942 54.1423 11.4334C54.2749 11.5675 54.4153 11.6944 54.6034 11.8729C54.6769 11.8486 54.8281 11.7985 55.0171 11.7358C54.7645 11.3179 54.865 10.9633 55.1107 10.6114C55.2007 10.4824 55.2025 10.2952 55.2757 10.15C55.3582 9.98678 55.4683 9.88898 55.6621 10.0615C55.8448 10.2244 56.0833 10.3264 56.2594 10.4947C56.5447 10.7671 56.7223 11.0794 56.4343 11.4739C56.3881 11.5372 56.4181 11.656 56.4124 11.7544C56.8324 11.7127 57.0097 11.3491 56.7943 11.0413C56.6188 10.7908 56.6053 10.5811 56.7985 10.2949C56.9644 10.0489 56.974 9.70119 57.0775 9.40718C57.1207 9.28419 57.2275 9.18369 57.3052 9.07299C57.379 9.16419 57.4726 9.24578 57.5218 9.34868C57.6106 9.53498 57.6781 9.73208 57.7441 9.92798C57.7882 10.0594 57.8272 10.195 57.8458 10.3318C57.8824 10.6012 57.9445 10.8313 58.1134 11.0785C58.2922 11.3404 58.3897 11.7571 58.3237 12.0637C58.2148 12.5713 58.2601 12.7408 58.7617 12.7483C58.7899 12.7486 58.8178 12.7738 58.7995 12.7651C58.7812 12.976 58.6858 13.2334 58.7704 13.3249C58.8682 13.4311 59.1241 13.3912 59.3647 13.4215C59.3386 13.3102 59.3341 13.213 59.2939 13.1341C59.0833 12.7249 59.0758 12.3103 59.2375 11.8864C59.2609 11.8252 59.2753 11.7244 59.3155 11.7118C59.6389 11.6122 59.5594 11.3893 59.5141 11.158C59.4754 10.9603 59.7826 10.6777 60.0208 10.6705C60.4183 10.6582 60.9475 11.0173 60.9805 11.4079C61.0027 11.6695 60.8671 11.9443 60.8008 12.2131C60.7501 12.4186 60.6976 12.6235 60.646 12.8287C60.6859 12.8404 60.7255 12.8521 60.7654 12.8638C60.9307 12.5788 61.0963 12.2938 61.3243 11.9011C61.4866 12.1804 61.618 12.3907 61.7332 12.6094C61.8544 12.8395 61.96 13.078 62.0731 13.3129C62.125 13.4206 62.2189 13.5265 62.2231 13.6357C62.2411 14.0893 62.5633 14.3728 62.7676 14.728C62.9782 15.094 63.1339 15.5077 63.232 15.9199C63.4762 16.9468 63.6787 17.9839 63.8878 19.0189C63.967 19.4098 63.8242 19.7521 63.6601 20.0572C63.3094 19.7125 62.9134 19.4392 62.6836 19.0642C62.4622 18.703 62.1739 18.4309 61.8946 18.136C61.8571 18.0964 61.8247 18.031 61.7809 18.022C61.426 17.9488 61.2985 17.6308 61.0798 17.4064C60.9553 17.2786 60.7537 17.2297 60.5998 17.1256C60.3508 16.9573 60.079 16.8037 59.8807 16.5856C59.7142 16.4023 59.6242 16.255 59.3521 16.4254C59.2594 16.4833 59.0704 16.4026 58.9306 16.3654C58.729 16.3117 58.5352 16.1965 58.3333 16.1842C57.8923 16.1575 57.5497 15.8101 57.5716 15.367C57.5776 15.2482 57.562 15.1267 57.5422 15.0088C57.4342 14.3692 57.3157 13.7311 57.2137 13.0903C57.1768 12.859 57.1729 12.6406 57.4495 12.5014C57.5368 12.4576 57.5371 12.241 57.5461 12.0823C57.3514 12.2002 57.2338 12.4843 56.9092 12.1786C56.8912 12.502 56.8939 12.7357 56.8588 12.9637C56.842 13.0735 56.7772 13.2274 56.6926 13.2631C56.5624 13.318 56.3809 13.4203 56.257 13.2073C56.1967 13.1035 56.113 13.012 56.0317 12.922C55.8667 12.7393 55.7263 12.6661 55.5379 12.9316C55.3987 13.1278 55.144 13.2409 55.0009 13.4353C54.8683 13.6156 54.8101 13.8526 54.7288 14.068C54.6625 14.2444 54.6151 14.428 54.5503 14.6053C54.514 14.7049 54.4597 14.7976 54.4135 14.8936C54.5305 14.9215 54.6466 14.9629 54.7651 14.9719C54.8353 14.9773 54.9097 14.9323 54.9469 14.9206C54.9913 14.6497 55.0138 14.4034 55.0741 14.1667C55.1842 13.7344 55.7524 13.4197 56.2015 13.525C56.8342 13.6732 57.1 14.0437 57.1705 14.6821C57.2263 15.1867 57.3685 15.685 57.5062 16.1767C57.628 16.612 57.5455 16.9729 57.3316 17.3719C57.1237 17.7601 56.8801 18.169 56.9938 18.6724C57.0391 18.8725 56.9518 19.102 56.9944 19.3357C56.7022 19.7497 56.41 20.1634 56.1058 20.5945C56.0515 20.5636 55.981 20.5234 55.8436 20.4448C55.708 20.9575 55.5718 21.4435 55.4542 21.934C55.4116 22.1119 55.1596 22.2685 54.9991 22.1521C54.6589 21.9049 54.3415 21.6259 54.0496 21.3886C53.6836 21.475 53.3107 21.559 52.9402 21.652C52.7254 21.706 52.6126 21.6274 52.6267 21.4117C52.6672 20.7973 52.7002 20.1814 52.78 19.5718C52.801 19.4113 52.9972 19.2805 53.0809 19.1194C53.1439 18.9982 53.1955 18.8458 53.1814 18.7153C53.1493 18.4204 53.0515 18.1324 53.0263 17.8378C53.0167 17.7238 53.131 17.5993 53.1889 17.4796C53.3044 17.5411 53.4466 17.5789 53.5291 17.6707C53.6281 17.7808 53.7334 17.9359 53.7355 18.073C53.7412 18.4342 53.995 18.5206 54.2497 18.6265C54.3196 18.6556 54.3859 18.6964 54.4585 18.7144C54.5656 18.7411 54.6763 18.7519 54.7855 18.7696C54.7777 18.6358 54.8014 18.4891 54.7528 18.3724C54.7099 18.2701 54.5557 18.2161 54.5059 18.1138C54.4441 17.9863 54.379 17.8048 54.427 17.6959C54.4735 17.5909 54.6571 17.536 54.7897 17.4826C54.9073 17.4352 55.0378 17.4199 55.1098 17.4028C55.0159 17.2 54.9316 17.0047 54.8359 16.8154C54.7342 16.6138 54.5986 16.5799 54.3727 16.6648C54.2311 16.7182 54.0298 16.6675 53.8732 16.6123C53.6986 16.5511 53.4319 16.3228 53.3995 16.3561C53.2078 16.5535 53.0158 16.7872 52.9333 17.044C52.8382 17.3401 52.819 17.3953 52.5391 17.2399C52.2718 17.0911 51.9979 16.9495 51.7492 16.7734C51.4972 16.5952 51.5317 16.3192 51.7852 16.1449C51.8548 16.0972 51.925 15.9958 51.9283 15.9166C51.9409 15.6094 51.9559 15.2968 51.9097 14.9956C51.8878 14.8534 51.7387 14.7238 51.6301 14.6041C51.5356 14.5 51.4153 14.4196 51.3091 14.326C50.9767 14.0323 50.6329 13.7536 50.1484 13.8652C50.0566 13.8865 49.9831 14.0128 49.9141 14.1007C49.8271 14.212 49.7785 14.3794 49.6681 14.4406C49.4581 14.557 49.4185 14.695 49.4251 14.9236C49.4335 15.2212 49.3684 15.5212 49.3327 15.82C49.3147 15.9703 49.2835 16.1194 49.2727 16.27C49.2481 16.6114 49.2595 16.9585 49.1995 17.293C49.1761 17.4229 49.0024 17.5276 48.8935 17.6401C48.7978 17.7394 48.697 17.8339 48.5983 17.9305C48.6268 17.9776 48.655 18.0247 48.6835 18.0718C48.9106 18.0181 49.1569 18.0028 49.3609 17.9026C49.7158 17.728 49.8943 17.7928 49.9471 18.1867C49.9645 18.3154 49.9549 18.4477 49.96 18.6979C50.1361 18.5251 50.2792 18.4222 50.3725 18.2854C50.5858 17.9737 50.7178 17.9338 51.0514 18.1141C51.1213 18.1519 51.2182 18.1801 51.292 18.1639C51.5419 18.1084 51.7852 18.0235 52.0345 17.9635C52.3378 17.8909 52.4002 17.962 52.4146 18.2704C52.4245 18.4837 52.5202 18.6943 52.5199 18.9061C52.5196 19.1257 52.4947 19.3675 52.3993 19.5592C52.2799 19.7992 52.2244 20.0185 52.273 20.2831C52.2931 20.3926 52.2247 20.5186 52.1977 20.6311C52.2211 20.731 52.2922 20.8576 52.258 20.9416C52.2298 21.0106 52.0504 21.0865 51.985 21.0565C51.871 21.0043 51.7933 20.8732 51.6646 20.737C51.4441 20.7745 51.55 20.9794 51.5839 21.1291C51.6115 21.2503 51.613 21.3808 51.8485 21.3676C52.0345 21.3571 52.2313 21.5425 52.4236 21.6409C52.3585 21.7675 52.2928 21.8941 52.2277 22.0207C52.1833 22.1074 52.1362 22.1932 52.0969 22.2823C52.0795 22.3213 52.0882 22.3996 52.0684 22.4059C51.7072 22.5181 51.5359 22.9249 51.2578 23.0446C50.7604 23.2585 50.7775 23.6587 50.6527 24.0316C50.6116 24.1543 50.542 24.2683 50.4772 24.3817C50.4355 24.4549 50.3389 24.5176 50.3356 24.5881C50.3227 24.8878 50.1211 24.9718 49.8832 25.0279C49.5754 25.1008 49.2676 25.1731 48.9529 25.2475C49.057 25.6153 48.9526 25.8388 48.6397 26.0482C47.8858 26.5531 47.8201 26.5381 47.6782 25.6573C47.638 25.4086 47.5288 25.1743 47.7145 24.9313C47.7574 24.8752 47.7076 24.7423 47.6896 24.6469C47.6551 24.4633 47.6368 24.2794 47.8528 24.2008C48.0418 24.1321 48.2299 24.0346 48.4084 24.2734C48.5563 24.4714 48.7831 24.5284 49.0285 24.3985C48.8479 24.1693 48.7045 23.914 48.4939 23.7394C48.2767 23.5591 48.0559 23.4238 48.0334 23.1007C48.0295 23.0467 47.8063 22.9582 47.6983 22.9747C47.5927 22.9906 47.4235 23.1226 47.425 23.2006C47.4286 23.3902 47.5063 23.5813 47.5711 23.7658C47.6401 23.962 47.5354 24.3667 47.3563 24.4561C47.0737 24.5971 46.9216 24.3292 46.7761 24.1945C46.5694 24.0034 46.4803 23.6785 46.2652 23.5042C45.8842 23.1955 45.8578 22.8943 46.0222 22.4539C46.1218 22.1866 45.6367 21.8323 45.3319 21.9139C45.1144 21.9721 45.0196 21.9121 44.8858 21.7234C44.4913 21.1666 43.7152 20.6683 42.9745 20.941C42.7048 21.0403 42.5623 20.8474 42.4015 20.71C42.079 20.4346 41.7859 20.1217 41.4445 19.8742C41.278 19.7533 41.0221 19.5736 40.8313 19.9066C40.7977 19.9651 40.7056 19.9909 40.6393 20.0299C40.1977 20.29 40.1932 20.2912 40.3207 20.7727C40.3684 20.9524 40.3471 21.073 40.183 21.1981C39.9418 21.382 39.7423 21.6193 39.5074 21.8128C39.4189 21.8857 39.2815 21.8992 39.1663 21.94C39.151 21.9088 39.1354 21.8773 39.1198 21.8458ZM45.8926 16.0402C45.8497 16.4212 45.7963 16.7311 45.7924 17.0416C45.7915 17.1208 45.9358 17.2303 46.0354 17.2687C46.0762 17.2846 46.2004 17.1622 46.2442 17.0803C46.4752 16.645 46.4578 16.5976 45.8926 16.0402Z" fill="#7BC998"/>
<path d="M22.2763 29.71C22.0417 29.7088 21.8164 29.6917 21.5812 29.455C21.382 29.2549 20.9935 29.1901 20.6824 29.1712C20.4544 29.1574 20.2849 29.1274 20.1262 28.9672C19.9468 28.7863 19.8121 28.8019 19.7254 29.0707C19.6399 29.3359 19.4599 29.3854 19.2049 29.263C18.9241 29.128 18.6358 29.0038 18.3403 28.906C17.6998 28.6939 17.1028 29.2225 17.1949 29.8975C17.218 30.0667 17.1994 30.2413 17.2003 30.4135C17.1655 30.4327 17.1304 30.4516 17.0956 30.4705C16.9507 30.3109 16.8079 30.1492 16.6609 29.9917C15.9403 29.2204 16.0747 27.8152 16.8898 27.1231C17.3911 26.6971 17.9881 26.6257 18.5827 26.4982C18.7828 26.4553 18.9754 26.3785 19.2685 26.2867C19.5835 26.551 20.0401 26.4139 20.5024 26.3287C20.7442 26.2843 20.9995 26.3191 21.2455 26.2903C21.9076 26.2132 22.5658 26.017 23.2321 26.2828C23.3269 26.3206 23.4526 26.3032 23.5591 26.2846C24.3517 26.146 25.1533 26.1496 25.9525 26.0989C26.5948 26.0584 27.2311 25.8736 27.8605 25.7143C27.9865 25.6825 28.1527 25.4803 28.1566 25.3528C28.1728 24.7933 28.4458 24.3409 28.6939 23.8741C28.7287 23.8084 28.7764 23.7415 28.8349 23.6977C29.2303 23.401 29.6386 23.1205 30.0253 22.813C30.1951 22.678 30.3736 22.5151 30.4612 22.3249C30.628 21.9628 30.9238 21.8851 31.2628 21.841C31.4683 21.8143 31.6774 21.7945 31.8763 21.7402C32.3902 21.5998 33.0574 21.8347 33.4033 22.2181C33.5134 22.3402 33.8023 22.4101 33.9595 22.357C34.2376 22.2631 34.4788 22.0582 34.7329 21.8959C34.8037 21.8506 34.8664 21.7918 34.9291 21.7423C35.0755 21.7846 35.0677 22.1401 35.3227 21.8371C35.308 22.1728 35.4646 22.2907 35.7109 22.3801C36.0883 22.5169 36.7183 23.5129 36.6766 23.9071C36.6538 24.1234 36.5287 24.3274 36.4666 24.5416C36.4381 24.6403 36.424 24.757 36.4477 24.8548C36.5644 25.3363 36.6841 25.8181 36.8281 26.2921C36.8971 26.5195 36.823 26.5984 36.6196 26.6764C36.5032 26.7208 36.3988 26.8525 36.3355 26.9701C36.1915 27.2389 36.0706 27.5209 35.9524 27.8026C35.9161 27.8887 35.8858 27.9994 35.9077 28.0849C36.157 29.059 35.6788 29.6995 34.9402 30.2218C34.6279 30.4429 34.5037 30.7402 34.5802 31.1143C34.5955 31.1893 34.6345 31.2757 34.6123 31.3393C34.4164 31.897 34.4239 32.4643 34.5058 33.0385C34.5148 33.1015 34.5034 33.1729 34.4824 33.2341C34.3516 33.6136 34.2763 34.0315 34.0609 34.3564C33.9025 34.5952 33.5776 34.792 33.2926 34.8571C33.0499 34.9126 32.749 34.7782 32.4904 34.6834C32.1355 34.5532 31.7974 34.3777 31.4485 34.2301C31.3936 34.207 31.3138 34.2106 31.2559 34.2313C30.6271 34.4563 29.9974 34.3549 29.368 34.243C29.1784 34.2094 28.9627 34.2034 28.8109 34.1047C28.621 33.9814 28.3588 33.7804 28.3516 33.604C28.3369 33.2371 28.0966 33.0022 27.9019 32.8282C27.6592 32.611 27.3583 32.3248 26.9146 32.4826C26.752 32.5405 26.5222 32.4352 26.3305 32.3794C26.0938 32.3104 25.8592 32.2276 25.6348 32.1268C25.4881 32.0608 25.3699 31.9294 25.222 31.8682C25.0699 31.8055 24.886 31.8193 24.736 31.7536C24.3424 31.5811 24.0496 31.3045 23.9791 30.8545C23.3143 31.0987 22.9027 30.8881 22.6306 30.2248C22.5559 30.0457 22.408 29.8978 22.2763 29.71Z" fill="#7BC998"/>
<path d="M64.7461 23.6468C64.7194 23.534 64.693 23.4215 64.6663 23.3087C65.257 23.8823 65.7337 24.5036 65.7439 25.3652C65.7451 25.4711 65.7673 25.5926 65.8228 25.6799C66.3757 26.5493 66.6181 27.5234 66.7336 28.5245C66.7867 28.9844 66.7093 29.462 66.6688 29.9297C66.6382 30.2828 66.5722 30.6329 66.5158 31.0295C66.3745 30.9734 66.2929 30.9089 66.2455 30.9284C66.1351 30.9737 65.9476 31.0766 65.9566 31.1255C66.001 31.3667 66.0388 31.6511 66.19 31.823C66.6466 32.342 66.6181 33.0128 66.2962 33.6446C65.7178 33.0866 65.1514 32.54 64.5403 31.9502C64.5343 32.1257 64.5283 32.2931 64.5226 32.4602C64.495 32.4782 64.4674 32.4962 64.4398 32.5142C64.2967 32.3936 64.1533 32.2733 63.9964 32.1413C63.9904 32.1863 63.9823 32.2493 63.973 32.3207C63.682 32.3303 63.7063 32.1125 63.7303 31.8947C63.694 31.9052 63.6574 31.9157 63.6211 31.9262C63.6274 32.1188 63.6337 32.3117 63.6415 32.5442C63.2551 32.5691 62.866 32.5943 62.461 32.6207C62.4394 32.7428 62.4256 32.8499 62.401 32.9543C62.3503 33.1694 62.1178 33.2492 61.9444 33.1256C61.7071 32.9564 61.4611 32.7998 61.219 32.6372C61.1827 32.6129 61.1419 32.5919 61.1137 32.5598C60.7762 32.1767 60.4174 32.1248 59.9968 32.4005C59.6287 32.6417 59.2354 32.5757 58.9186 32.2478C58.2853 31.5926 57.8305 30.8261 57.4351 30.0113C57.3505 29.837 57.1096 29.7311 56.9281 29.6129C56.6002 29.399 56.1409 29.3768 55.9975 28.8998C55.8901 28.5425 55.6828 28.2611 55.2382 28.3019C55.1881 28.3064 55.1155 28.2851 55.0852 28.2491C54.796 27.9068 54.3664 27.9155 53.9857 27.8051C53.9194 27.7859 53.8384 27.8024 53.767 27.8171C53.3653 27.8993 53.1346 27.7391 53.1406 27.3296C53.1463 26.9462 53.1991 26.5631 53.2402 26.1809C53.248 26.1092 53.2864 26.0318 53.3326 25.9745C53.5909 25.6556 53.8363 25.3226 54.1255 25.034C54.3184 24.8414 54.6394 24.7586 54.7894 24.5462C54.9526 24.3152 55.0543 24.0839 55.3747 24.0329C55.5043 24.0122 55.6168 23.8244 55.7383 23.8229C56.2555 23.816 56.6425 23.6366 57.0316 23.2646C57.3775 22.934 57.8767 22.6448 58.3381 22.5902C58.7332 22.5434 58.7644 22.2632 58.9741 22.1111C59.0359 22.0664 59.1073 22.0289 59.1799 22.0061C59.359 21.9497 59.4436 21.8576 59.4367 21.6479C59.4325 21.5216 59.5039 21.3521 59.5999 21.2717C59.7898 21.1121 59.7892 20.9288 59.7364 20.7338C59.6356 20.3612 59.5414 19.9838 59.3995 19.6262C59.1649 19.0349 59.464 18.5486 59.6425 18.0269C59.7409 17.7392 59.8444 17.6285 60.0721 17.8373C60.1735 17.6618 60.2692 17.4959 60.412 17.2478C60.544 17.5163 60.6241 17.6798 60.7045 17.8433C60.7723 17.9816 60.8077 18.158 60.9151 18.2501C61.1818 18.4787 61.2292 18.7898 61.3249 19.0922C61.3639 19.2149 61.456 19.3523 61.5637 19.415C61.7932 19.5488 61.9351 19.4357 61.9108 19.1711C61.8991 19.0412 61.8919 18.911 61.8784 18.7175C62.0182 18.7619 62.1487 18.7631 62.2015 18.8276C62.3629 19.0256 62.4856 19.2542 62.6395 19.4585C62.7898 19.6583 62.9401 19.865 63.1249 20.0306C63.8626 20.6915 64.2424 21.4943 64.1662 22.4954C64.1617 22.556 64.1686 22.6583 64.2028 22.6748C64.5109 22.8251 64.4779 23.123 64.5376 23.3858C64.5607 23.4875 64.6309 23.5787 64.6795 23.6747C64.7017 23.666 64.7239 23.6564 64.7461 23.6468Z" fill="#7BC998"/>
<path d="M42.0745 79.5803C42.3241 79.6013 42.5626 79.6106 42.7969 79.6472C42.8809 79.6604 42.9958 79.7228 43.0249 79.7927C43.1086 79.9931 43.1935 80.2064 43.2094 80.4194C43.2373 80.7956 43.2241 81.176 43.2058 81.5537C43.2016 81.6389 43.123 81.7655 43.0483 81.794C42.796 81.8906 42.5299 81.9515 42.2521 82.0307C42.2047 82.1771 42.1318 82.3475 42.0994 82.5254C42.085 82.6055 42.133 82.7612 42.1849 82.7771C42.3538 82.829 42.5923 82.9145 42.706 82.8392C43.0588 82.6046 43.354 82.8455 43.6624 82.8974C43.8346 82.9262 43.8385 83.1104 43.699 83.2334C43.5199 83.3918 43.2661 83.5022 43.1578 83.6963C42.8968 84.1631 42.364 84.3059 42.0598 84.7058C42.0211 84.7565 41.9602 84.8246 41.9698 84.8726C42.0562 85.307 41.7298 85.4951 41.482 85.7393C41.3809 85.8386 41.3224 85.9811 41.2429 86.1026C41.1979 86.1713 41.1637 86.2673 41.0989 86.3C40.7863 86.4578 40.765 86.6951 40.9024 87.0194C40.2694 87.2555 39.6445 87.485 38.9593 87.482C38.794 87.4814 38.623 87.4544 38.4646 87.4871C38.2699 87.5276 38.1604 87.4274 38.0026 87.3521C37.717 87.2153 37.3789 87.1265 37.063 87.1274C36.358 87.1292 36.3166 87.1121 36.1342 86.4527C36.0916 86.2985 35.9131 86.1815 35.8261 86.081C35.7709 85.6883 35.6638 85.3055 35.6779 84.9272C35.6944 84.485 35.713 84.0098 36.1261 83.6702C35.9392 83.4029 35.9233 83.2028 36.2131 82.9238C36.469 82.6775 36.6784 82.2641 36.6919 81.9164C36.7072 81.5165 36.9328 81.0854 36.6379 80.6783C36.4648 80.4389 36.5536 80.06 36.2485 79.8728C36.2233 79.8575 36.2158 79.7972 36.1945 79.7939C35.6872 79.7174 35.6854 79.2902 35.578 78.9287C35.5381 78.7946 35.4718 78.6509 35.3749 78.5549C35.0467 78.2294 35.0407 77.8244 35.0653 77.4137C35.0803 77.1641 35.2174 76.9991 35.4877 76.9958C36.061 76.9889 36.556 76.8071 36.9577 76.3832C37.0858 76.2479 37.2352 76.1261 37.3936 76.0289C37.5001 75.9635 37.6378 75.9434 37.7644 75.9188C37.9801 75.8765 38.2018 75.8621 38.4139 75.8078C38.7478 75.722 38.9467 75.8828 39.1444 76.1228C39.4963 76.5497 39.8272 76.9835 40.0267 77.5079C40.0561 77.5853 40.1896 77.6552 40.2844 77.6705C40.7152 77.7401 41.107 77.873 41.4226 78.1961C41.5267 78.3029 41.7025 78.3455 41.7919 78.4595C41.9854 78.7067 42.2959 78.932 42.0637 79.3253C42.0322 79.3784 42.0679 79.4714 42.0745 79.5803Z" fill="#7BC998"/>
<path d="M45.1558 88.6126C45.0217 88.4356 44.9164 88.297 44.7985 88.1416C44.6992 88.2865 44.6341 88.3813 44.569 88.4764C44.5459 88.4641 44.5228 88.4521 44.4997 88.4398C44.5486 88.1476 44.5978 87.8557 44.6467 87.5635C44.6869 87.5617 44.7268 87.5599 44.767 87.5581C44.8309 87.6688 44.8951 87.7792 45.0088 87.976C45.022 87.6586 45.0112 87.4015 45.3322 87.3709C45.3346 87.3706 45.3439 87.1807 45.3169 87.1711C44.9845 87.0514 45.1474 86.8717 45.2566 86.7079C45.4702 86.3875 45.6985 86.0767 45.9052 85.7521C45.9379 85.7008 45.9184 85.552 45.8758 85.5262C45.4651 85.2787 45.2749 84.895 45.2044 84.4306C44.9125 84.5299 44.8915 84.6868 44.9791 84.9211C45.0223 85.0363 44.9806 85.183 44.9761 85.3699C45.0121 85.4683 45.0748 85.633 45.1267 85.8007C45.1291 85.8085 45.0079 85.8766 44.9944 85.864C44.9008 85.7758 44.8207 85.6732 44.7127 85.5481C44.3518 85.6627 44.2849 85.3798 44.197 85.0891C44.0566 84.6247 44.1835 84.2197 44.422 83.8285C44.5465 83.6242 44.6587 83.4511 44.2924 83.3386C44.1721 83.3017 44.0614 83.0464 44.0482 82.8826C44.0149 82.4692 44.0296 82.0507 44.0494 81.6352C44.0533 81.5545 44.1523 81.4513 44.2336 81.4072C44.3737 81.3313 44.5381 81.3019 44.6851 81.2368C44.7544 81.2062 44.8642 81.1246 44.8558 81.0892C44.8339 80.9944 44.7745 80.8918 44.6989 80.8309C44.6266 80.7724 44.4943 80.7859 44.4259 80.7253C44.3278 80.6386 44.2303 80.521 44.2018 80.4004C44.1907 80.3533 44.3644 80.2099 44.4583 80.2054C44.5486 80.2009 44.65 80.3134 44.7364 80.3866C44.7832 80.4259 44.8087 80.4904 44.857 80.5633C44.8852 80.2639 44.911 79.9933 44.9365 79.723C44.9635 79.7269 44.9908 79.7305 45.0178 79.7344C44.9272 79.6153 44.8366 79.4959 44.7457 79.3768C44.7685 79.3408 44.7913 79.3048 44.8141 79.2688C45.0208 79.7218 45.2728 79.2022 45.4957 79.3642C45.5467 79.2805 45.5803 79.1731 45.6532 79.1206C45.7258 79.0684 45.8527 79.0339 45.9277 79.0633C45.9814 79.0843 46.0135 79.2232 46.0132 79.3096C46.0123 79.6045 45.8773 79.972 46.0066 80.1775C46.2187 80.5147 46.1257 80.854 46.1902 81.1834C46.3207 81.8458 46.2007 82.4983 46.0258 83.1496C45.9244 83.5264 45.6301 83.8813 45.8062 84.3082C45.8782 84.4825 45.9745 84.6502 46.0873 84.7999C46.1053 84.8239 46.2793 84.7531 46.3606 84.6964C46.3957 84.6718 46.3537 84.5485 46.3894 84.5104C46.4887 84.4045 46.6108 84.3196 46.7239 84.2263C46.7566 84.3514 46.8391 84.4885 46.8121 84.5989C46.7449 84.8746 46.651 85.1497 46.5235 85.4026C46.4206 85.6069 46.2553 85.7782 46.3312 86.035C46.342 86.0722 46.3321 86.1355 46.3063 86.1604C45.844 86.6044 45.9571 87.214 45.8329 87.7561C45.8059 87.8746 45.6979 87.9787 45.6154 88.0798C45.475 88.2532 45.3235 88.4197 45.1558 88.6126Z" fill="#7BC998"/>
<path d="M67.2565 44.4261C67.2331 44.7399 67.4965 44.991 67.1509 45.3027C67.0858 45.0273 67.0264 44.8128 66.9856 44.595C66.8989 44.13 66.8242 44.0724 66.3847 44.2113C66.0946 44.3031 65.9611 44.043 65.863 43.9092C65.7526 43.7589 65.8021 43.4892 65.7886 43.2714C65.7862 43.2315 65.836 43.1841 65.8264 43.1499C65.7361 42.8205 65.9449 42.7488 66.2257 42.7356C66.2263 42.7068 66.2266 42.678 66.2272 42.6492C65.9854 42.546 65.7514 42.3849 65.5003 42.3504C64.8703 42.2634 64.8148 41.9745 65.0749 41.433C65.3689 40.8207 65.8183 40.3251 66.2254 39.7962C66.394 39.5772 66.7252 39.6663 66.8524 39.9729C66.9067 40.1037 66.9421 40.2483 66.9553 40.3896C67.0159 41.0274 67.3402 41.5182 67.7863 41.9502C67.8499 42.0117 67.8862 42.1122 67.912 42.2013C67.9831 42.4467 68.0524 42.6936 68.1013 42.9441C68.128 43.0803 68.0545 43.2765 68.1259 43.3557C68.3347 43.5876 68.1757 43.8381 68.2081 44.073C68.2264 44.2053 68.1373 44.3976 68.0323 44.4894C67.9114 44.5953 67.729 44.6655 67.5616 44.4828C67.5085 44.4252 67.3708 44.4447 67.2565 44.4261Z" fill="#7BC998"/>
<path d="M67.1875 54.6384C67.1095 54.5124 67.0597 54.3468 66.9487 54.2676C66.4774 53.9325 65.9866 53.6253 65.506 53.3031C65.3494 53.1981 65.2639 53.1978 65.152 53.388C65.0419 53.5746 64.8478 53.712 64.6747 53.8866C64.3318 53.6121 64.3564 53.2215 64.3711 52.881C64.3828 52.6089 64.5295 52.3356 64.6489 52.0782C64.714 51.9378 64.8517 51.9354 65.0275 51.9291C65.3761 51.9165 65.6509 52.0386 65.9368 52.1871C66.268 52.3593 66.6337 52.482 66.9301 52.7001C67.4092 53.0526 67.9006 53.4183 68.278 53.8692C68.542 54.1848 68.6698 54.6411 68.7748 55.0557C68.8636 55.4058 68.8552 55.7877 68.8354 56.1528C68.8309 56.2341 68.5564 56.3952 68.4799 56.3601C68.2837 56.2698 68.1112 56.1051 67.9627 55.9401C67.8514 55.8165 67.792 55.6461 67.7101 55.4967C67.6426 55.3737 67.5376 55.2567 67.516 55.1262C67.4761 54.885 67.3675 54.7461 67.1086 54.7323C67.1344 54.7008 67.1608 54.6696 67.1875 54.6384Z" fill="#7BC998"/>
<path d="M47.3608 76.5188C47.3188 76.478 47.212 76.3742 47.0743 76.2407C47.2204 76.2062 47.3293 76.1807 47.4811 76.1447C46.909 75.9803 46.9042 75.9755 47.0551 75.3809C47.1076 75.1742 47.179 74.972 47.2522 74.7344C47.6947 74.9201 48.0979 75.0767 48.49 75.2579C48.7621 75.3833 48.9997 75.4265 49.2421 75.1928C49.6156 74.8325 50.0773 74.9963 50.4943 75.0515C50.7904 75.0908 50.8963 75.6017 50.6464 75.7682C50.4334 75.9101 50.1535 75.9977 49.8973 76.013C49.6945 76.0253 49.606 76.0514 49.6159 76.2533C49.6285 76.5131 49.5106 76.6727 49.2871 76.8107C48.8401 77.087 48.4276 77.4212 47.9728 77.6825C47.8393 77.7593 47.5966 77.7104 47.4301 77.6486C47.2441 77.5793 46.9429 77.5304 47.0056 77.2412C47.0563 77.0096 47.2168 76.8014 47.3608 76.5188Z" fill="#7BC998"/>
<path d="M37.6261 57.7808C37.5526 58.1789 37.0012 58.5875 36.5566 58.5461C36.1114 58.5047 35.6632 58.4933 35.2174 58.4534C34.7335 58.4102 34.2475 58.3715 33.7699 58.2887C33.4396 58.2314 33.4087 57.9038 33.337 57.6455C33.28 57.4406 33.3283 57.2618 33.5449 57.1445C33.7618 57.0266 33.9475 56.8391 34.174 56.7551C34.3291 56.6978 34.5301 56.7701 34.711 56.7755C34.8709 56.78 35.0605 56.8268 35.1862 56.7596C35.6608 56.5067 36.0247 56.6666 36.4081 56.9663C36.7858 57.2618 37.2058 57.5033 37.6261 57.7808Z" fill="#7BC998"/>
<path d="M58.5001 79.5337C58.1398 79.9279 57.7012 79.7407 57.253 79.6108C57.1315 79.5757 56.9764 79.6447 56.839 79.6765C56.5525 79.7428 56.3656 79.633 56.2729 79.3618C56.1562 79.0201 56.062 78.6832 55.7716 78.415C55.6258 78.2803 55.558 78.0034 55.5517 77.788C55.5418 77.4517 55.3168 77.3362 55.0846 77.2351C54.9625 77.1817 54.7393 77.2303 54.8068 77.0251C54.8731 76.8235 54.9595 76.5652 55.2664 76.5805C55.3093 76.5826 55.3624 76.591 55.3918 76.6174C55.7461 76.9339 56.2147 77.164 56.35 77.6572C56.431 77.9518 56.6056 78.0952 56.848 78.2167C56.9536 78.2695 57.0646 78.331 57.1426 78.4165C57.5044 78.8122 57.8557 78.9025 58.3933 78.7207C58.5289 78.6748 58.6636 78.6121 58.8031 78.5959C58.8751 78.5875 59.0032 78.6463 59.0263 78.7057C59.1244 78.9565 59.3167 79.0147 59.551 79.0138C59.9593 79.0123 59.9563 79.0327 59.8183 79.4038C59.7547 79.5748 59.8018 79.7866 59.7979 79.9798C59.7958 80.0803 59.7922 80.1808 59.7892 80.2813C59.6728 80.2726 59.5357 80.2999 59.4448 80.2474C59.302 80.1646 59.1823 80.0749 59.0101 80.0209C58.8217 79.9618 58.6888 79.7248 58.5001 79.5337Z" fill="#7BC998"/>
<path d="M70.6627 54.6648C70.6702 54.4452 70.6591 54.2484 70.3753 54.1899C70.3156 54.1776 70.2721 54.0357 70.2409 53.9466C70.1797 53.7711 70.1326 53.5908 70.0813 53.418C69.6901 53.4414 69.4963 53.1309 69.6466 52.7754C69.6811 52.6938 69.7003 52.5891 69.682 52.5045C69.6244 52.2378 69.4987 51.9675 69.8722 51.7929C69.3538 51.6099 69.2788 51.3888 69.4573 50.8776C69.5002 50.7543 69.4672 50.4963 69.3901 50.4576C68.956 50.2398 69.1255 49.8345 69.055 49.5087C69.0412 49.4457 69.106 49.3674 69.1282 49.2942C69.1666 49.1691 69.1999 49.0425 69.2353 48.9165C69.3766 48.9813 69.5341 49.0239 69.6553 49.1151C69.9007 49.2999 70.1791 49.4862 69.9592 49.8729C69.9319 49.9212 69.9643 50.0376 70.0087 50.0871C70.285 50.3946 70.3087 50.706 70.0213 51.0492C70.1476 51.0669 70.2421 51.0801 70.3648 51.0972C70.0504 51.5622 70.5874 51.6135 70.7185 51.8637C70.8325 52.0818 71.0287 52.2561 71.1496 52.4718C71.2042 52.5693 71.164 52.7199 71.167 52.8462C71.0548 52.8363 70.9417 52.8315 70.8304 52.8147C70.7581 52.8039 70.6885 52.7754 70.5772 52.7433C70.6228 53.0253 70.693 53.2266 70.963 53.3211C71.065 53.3568 71.1637 53.4513 71.2243 53.5446C71.3317 53.7105 71.2093 54.4761 71.0512 54.5703C70.9396 54.6366 70.7854 54.6309 70.6501 54.6573L70.6627 54.6648Z" fill="#7BC998"/>
<path d="M56.7838 7.32065C56.9908 7.41905 57.184 7.51085 57.4603 7.64225C57.3097 7.66235 57.2617 7.66895 57.1972 7.67765C57.2158 7.73285 57.2605 7.79495 57.2449 7.83065C57.0853 8.19455 56.8552 8.53505 56.8942 8.96075C56.8015 8.96465 56.6626 9.00905 56.6242 8.96525C56.4997 8.82245 56.4046 8.65145 56.3113 8.48405C56.137 8.17235 56.0017 7.83395 55.7947 7.54685C55.5673 7.23095 55.5115 7.01405 55.6825 6.65915C55.7137 6.59435 55.7149 6.51185 55.7182 6.43715C55.7371 6.04115 55.6693 5.61665 55.7926 5.25725C55.9087 4.91825 55.9177 4.62605 55.855 4.29695C55.8463 4.25165 56.0149 4.11155 56.0539 4.12805C56.3215 4.24055 56.5783 4.37945 56.8333 4.51985C56.8735 4.54205 56.8957 4.61105 56.9104 4.66295C56.9953 4.96475 57.0826 5.26595 57.1549 5.57075C57.202 5.76875 57.2098 5.94575 56.9812 6.08195C56.9041 6.12785 56.932 6.34955 56.9083 6.51575C56.8615 6.52235 56.782 6.53345 56.6839 6.54695C56.7193 6.81815 56.752 7.07255 56.7838 7.32065Z" fill="#7BC998"/>
<path d="M56.5717 32.4547C56.6578 32.3158 56.7193 32.1502 56.8354 32.0443C57.0169 31.8784 57.1741 32.0317 57.3262 32.1421C57.5989 32.3404 57.7786 32.5027 57.6679 32.9389C57.589 33.25 57.6775 33.7024 58.0111 33.9814C58.2922 34.2166 58.2817 34.567 58.1764 34.8343C58.087 35.0614 57.8341 35.2666 57.6034 35.3776C57.4894 35.4325 57.2251 35.2933 57.0946 35.1715C56.8237 34.9183 56.5924 34.6216 56.3527 34.3363C56.0824 34.0147 55.8496 33.6838 56.1934 33.2653C56.2234 33.229 56.2249 33.1582 56.2195 33.1057C56.1874 32.7949 56.2879 32.5807 56.6617 32.5555C56.6314 32.5219 56.6017 32.4883 56.5717 32.4547Z" fill="#7BC998"/>
<path d="M39.0244 22.3678C38.9581 22.4857 38.8456 22.6864 38.7187 22.9129C38.8456 23.1547 38.7406 23.7382 38.4946 23.9677C38.341 24.1111 38.1661 24.0685 38.0746 23.8771C37.993 23.7061 37.8571 23.5516 37.8154 23.3731C37.7632 23.1511 37.7971 22.9108 37.7677 22.6816C37.7353 22.4263 37.7446 22.2103 38.0698 22.1545C38.0398 22.0276 38.0158 21.9253 37.987 21.8032C37.9207 21.826 37.8691 21.8626 37.8238 21.856C37.6666 21.8323 37.5118 21.7936 37.3561 21.7606C37.4236 21.5602 37.4848 21.3568 37.5667 21.1624C37.5763 21.1396 37.7197 21.1378 37.7674 21.1723C37.9813 21.3271 38.0674 21.2209 38.1649 21.0298C38.4049 20.56 38.3593 20.4985 38.1076 20.0692C37.9825 19.8559 38.0551 19.5211 38.0707 19.2433C38.0719 19.2256 38.3791 19.1725 38.5072 19.225C38.929 19.3981 39.1888 20.1625 39.0481 20.5984C38.9017 21.0523 38.7919 21.5203 38.7058 21.9895C38.6905 22.072 38.8696 22.1908 39.0244 22.3678Z" fill="#7BC998"/>
<path d="M46.6753 75.1684C46.291 75.3346 45.9781 75.5233 45.64 75.598C45.388 75.6535 45.1024 75.5698 44.8339 75.532C44.6461 75.5056 44.4637 75.4369 44.2756 75.4156C44.0944 75.3952 43.9621 75.3727 43.957 75.1387C43.9528 74.932 43.9069 74.7247 43.8637 74.5207C43.7527 73.9942 43.9276 73.546 44.3938 73.2523C44.5528 73.1521 44.6473 72.9244 44.9299 73.0414C45.2464 73.1722 45.3451 73.4392 45.3865 73.702C45.4648 74.1967 45.8971 74.7136 46.3612 74.7688C46.7401 74.8141 46.7788 74.8822 46.6753 75.1684Z" fill="#7BC998"/>
<path d="M43.942 70.6118C43.9642 70.3997 43.9807 70.2416 44.0044 70.0154C44.0092 70.013 44.0812 69.9473 44.1574 69.9422C44.5939 69.9134 44.7781 69.626 44.9161 69.2615C44.9767 69.101 45.097 68.9063 45.3061 69.0227C45.4807 69.1196 45.5203 69.2663 45.3616 69.4835C45.1075 69.8312 44.9059 70.2224 44.7205 70.6133C44.6071 70.8521 44.5825 71.1314 44.4838 71.3789C44.4367 71.4974 44.3194 71.5952 44.2177 71.6837C44.0023 71.8712 43.7101 72.0041 43.8757 72.3917C43.8958 72.4388 43.7044 72.635 43.5847 72.6686C43.4287 72.7124 43.2463 72.6512 43.0759 72.6566C42.8689 72.6629 42.6673 72.467 42.7396 72.2765C42.9346 71.7626 43.1569 71.2592 43.3621 70.7492C43.4701 70.481 43.6324 70.3895 43.942 70.6118Z" fill="#7BC998"/>
<path d="M42.7687 72.8574C42.7702 73.0371 42.8068 73.1868 42.7669 73.3122C42.5749 73.9134 42.8989 74.4504 42.9538 75.0195C42.9685 75.1737 42.9565 75.3306 42.9535 75.4863C42.952 75.5739 42.9307 75.6627 42.9406 75.7485C42.9973 76.2384 42.9421 76.7895 43.1566 77.1984C43.3513 77.5695 43.3063 78.0933 43.7767 78.345C43.8553 78.387 43.7569 78.7599 43.7371 79.0209C43.5886 78.9771 43.5232 78.9774 43.4899 78.9447C43.1494 78.6129 42.8038 78.285 42.4855 77.9328C42.412 77.8515 42.4084 77.6793 42.4201 77.5533C42.4534 77.1867 42.5431 76.8228 42.5485 76.4568C42.5533 76.1529 42.4519 75.8487 42.433 75.5424C42.4216 75.3591 42.4786 75.1713 42.505 74.9859C42.5125 74.9325 42.5314 74.8779 42.5269 74.8257C42.4855 74.337 42.4447 73.848 42.3946 73.3602C42.3589 73.0161 42.3532 73.0161 42.7687 72.8574Z" fill="#7BC998"/>
<path d="M71.6104 63.815C71.4988 63.0836 71.5162 62.399 71.7367 61.7261C71.7583 61.6604 71.8828 61.5704 71.9377 61.5836C72.1759 61.64 72.4168 61.7081 72.6367 61.8134C73.0954 62.033 73.333 62.8796 73.0696 63.3464C72.931 63.5924 72.7978 63.8744 72.5833 64.0334C72.4234 64.1519 72.1321 64.1351 71.9083 64.1072C71.7985 64.094 71.7091 63.9176 71.6104 63.815Z" fill="#7BC998"/>
<path d="M72.9397 75.2352C73.1785 75.6969 72.9931 76.1694 72.9886 76.6356C72.9844 77.0496 73.0261 77.4642 73.0513 77.8785C73.0567 77.9661 73.0798 78.0525 73.09 78.1398C73.1143 78.3453 73.123 78.5883 72.8728 78.6105C72.7771 78.6189 72.5881 78.3834 72.5662 78.2397C72.5209 77.946 72.5704 77.6388 72.5593 77.3382C72.5545 77.2062 72.5152 77.0679 72.4591 76.9473C72.3502 76.7139 72.19 76.5018 72.1033 76.2618C71.9992 75.9735 71.9245 75.669 71.8855 75.3654C71.8606 75.1719 71.9218 74.9667 71.9485 74.7672C71.9653 74.6421 71.9806 74.5158 72.0136 74.3946C72.0358 74.3127 72.0874 74.2386 72.1258 74.1609C72.2032 74.2008 72.3244 74.223 72.3496 74.2845C72.4366 74.4966 72.5059 74.6868 72.7489 74.8008C72.8566 74.8512 72.8788 75.0846 72.9397 75.2352Z" fill="#7BC998"/>
<path d="M35.3464 86.2542C35.4604 86.2812 35.5654 86.277 35.6227 86.3271C35.6884 86.3847 35.7349 86.4879 35.7442 86.5764C35.7496 86.6262 35.6719 86.721 35.6164 86.7351C35.2564 86.826 34.8946 86.937 34.5283 86.9589C34.4098 86.9661 34.2106 86.7441 34.1668 86.5926C34.1125 86.4045 34.1002 86.0982 34.2121 85.9887C34.5235 85.6839 34.906 85.4505 35.2672 85.1988C35.3317 85.1538 35.4295 85.1562 35.6275 85.1094C35.524 85.5309 35.437 85.8852 35.3464 86.2542Z" fill="#7BC998"/>
<path d="M58.1032 9.44686C58.1878 9.47386 58.2721 9.50055 58.4134 9.54525C58.3696 9.35925 58.3216 9.22516 58.3093 9.08806C58.2919 8.89066 58.2163 8.65155 58.5478 8.61705C58.5901 8.61255 58.6405 8.53066 58.6579 8.47516C58.7587 8.15716 58.8628 8.27566 58.999 8.45566C59.1487 8.65336 59.3155 8.82766 59.1181 9.09376C59.0746 9.15226 59.1178 9.26805 59.0956 9.35085C59.0068 9.68145 58.9264 10.0163 58.8058 10.3352C58.7359 10.5197 58.489 10.5248 58.3873 10.3406C58.2418 10.0769 58.1386 9.78976 58.0177 9.51256C58.0462 9.49036 58.0747 9.46876 58.1032 9.44686Z" fill="#7BC998"/>
<path d="M44.4712 76.5945C44.1679 76.5969 43.9768 76.5984 43.7722 76.5999C43.8964 76.3359 44.5174 76.0236 44.7901 76.0635C44.9425 76.0857 45.1039 76.1403 45.2473 76.1115C45.6025 76.0398 45.6835 76.2936 45.7657 76.5234C45.82 76.6752 45.7909 76.8549 45.8344 77.0127C45.8764 77.1651 45.9634 77.3052 46.0438 77.4792C45.7744 77.4798 45.6286 77.3904 45.5896 77.1366C45.5596 76.9416 45.52 76.7442 45.4528 76.5597C45.3847 76.3737 45.2491 76.3092 45.0634 76.4559C45.1381 76.6689 45.2116 76.8777 45.2851 77.0865C44.929 76.8735 44.6731 76.8582 44.4397 77.2185C44.3929 77.2908 44.1916 77.2626 44.0614 77.2809C44.1022 77.1822 44.1325 77.0775 44.1862 76.9866C44.2486 76.8792 44.3317 76.7835 44.4712 76.5945Z" fill="#7BC998"/>
<path d="M62.4364 78.4903C62.5558 78.2677 62.6374 78.1154 62.7361 77.9312C62.8426 78.1163 62.9002 78.2534 62.9905 78.3644C63.1603 78.5738 63.1531 78.7474 62.893 78.8086C62.4739 78.9073 62.1355 79.1348 61.7785 79.3472C61.5541 79.481 61.3171 79.5412 61.1158 79.2505C61.0696 79.1836 60.8575 79.208 60.7291 79.2308C60.6559 79.2437 60.5971 79.3381 60.4762 79.4455C60.4045 79.3045 60.2902 79.1821 60.3052 79.0783C60.3181 78.9886 60.4663 78.8908 60.5749 78.8485C60.7945 78.7627 61.0279 78.7124 61.2781 78.7148C61.2103 78.7511 61.1428 78.7873 61.0042 78.8617C61.6171 78.9445 62.029 78.6019 62.4364 78.4903Z" fill="#7BC998"/>
<path d="M57.4906 5.9104C57.6991 6.1813 57.8779 6.4201 58.0645 6.6526C58.1446 6.7525 58.2403 6.8401 58.3297 6.9322C58.5064 7.1146 58.5181 7.3276 58.4116 7.5391C58.2979 7.765 58.1209 7.7809 57.8875 7.6891C57.3532 7.4794 57.1609 7.159 57.2884 6.5956C57.3388 6.3745 57.4162 6.1594 57.4906 5.9104Z" fill="#7BC998"/>
<path d="M71.218 64.2906C71.6536 64.254 72.0229 64.4346 72.3733 64.632C72.4579 64.6797 72.5041 64.9029 72.475 65.0229C72.409 65.295 72.3106 65.5665 72.1765 65.8116C72.0817 65.9847 71.8627 65.9952 71.7823 65.8071C71.5729 65.3187 71.4082 64.8111 71.218 64.2906Z" fill="#7BC998"/>
<path d="M58.6993 12.2314C58.6366 12.0793 58.5322 11.9308 58.5196 11.7745C58.4896 11.4025 58.4227 11.0038 58.7032 10.6933C58.7809 10.6075 58.9609 10.6141 59.0941 10.5784C59.1265 10.705 59.2207 10.8589 59.179 10.9528C59.0815 11.173 59.1721 11.5015 58.8352 11.605C58.8028 11.6149 58.8055 11.7655 58.8064 11.8507C58.8076 11.9644 58.8232 12.0778 58.8328 12.1915C58.7884 12.2047 58.7437 12.2179 58.6993 12.2314Z" fill="#7BC998"/>
<path d="M45.6181 78.1078C45.8959 78.1072 46.1488 78.094 46.3987 78.1144C46.4719 78.1204 46.567 78.2107 46.5955 78.2842C46.6132 78.3292 46.5364 78.4315 46.4791 78.4813C46.1617 78.7558 45.7954 78.5968 45.4501 78.5683C45.3883 78.5632 45.2782 78.3427 45.2947 78.3262C45.3874 78.2341 45.5116 78.1741 45.6181 78.1078Z" fill="#7BC998"/>
<path d="M64.4662 85.276C64.4356 85.1464 64.4062 85.0216 64.3741 84.886C64.4542 84.8401 64.5835 84.8053 64.5886 84.757C64.6435 84.2422 65.0479 84.433 65.2732 84.3694C65.2588 84.5203 65.2117 84.6694 65.239 84.8032C65.2867 85.0372 65.1973 85.1242 64.9825 85.1572C64.813 85.1827 64.6471 85.2334 64.4662 85.276Z" fill="#7BC998"/>
<path d="M39.9457 36.3855C40.0669 36.2484 40.1578 36.1419 40.2529 36.0396C40.303 35.9856 40.3573 35.9346 40.4158 35.8899C40.5088 35.8185 40.6444 35.6772 40.6951 35.7021C40.8055 35.7561 40.8739 35.8962 40.975 36.0201C40.8007 36.1131 40.6978 36.168 40.5664 36.2379C40.6297 36.3063 40.6987 36.3504 40.7185 36.4107C40.7413 36.4806 40.7497 36.5883 40.711 36.6363C40.6708 36.6858 40.5499 36.7206 40.4932 36.696C40.3237 36.6216 40.168 36.5151 39.9457 36.3855Z" fill="#7BC998"/>
<path d="M72.559 86.5386C73.0162 86.664 73.2526 87.1428 73.0396 87.477C72.9436 87.6276 72.8359 87.6726 72.7021 87.5223C72.5725 87.3771 72.4756 86.7528 72.559 86.5386Z" fill="#7BC998"/>
<path d="M56.9401 37.1811C57.0217 37.4262 56.8963 37.5504 56.6854 37.5822C56.4868 37.6122 56.2861 37.5957 56.2324 37.3317C56.1706 37.0263 56.3968 36.9987 56.5972 36.942C56.8159 36.8799 56.9353 36.9555 56.9401 37.1811Z" fill="#7BC998"/>
<path d="M56.6887 39.3046C56.4547 39.2452 56.2876 39.2317 56.1526 39.1585C56.0515 39.1039 55.9639 38.9812 55.9288 38.8705C55.9159 38.8297 56.0671 38.6833 56.1499 38.6773C56.3107 38.6656 56.5504 38.6647 56.6209 38.7601C56.7127 38.8843 56.6713 39.1066 56.6887 39.3046Z" fill="#7BC998"/>
<path d="M54.0184 77.0083C53.8951 77.0104 53.7931 77.0434 53.7544 77.0077C53.5615 76.8289 53.3464 76.7851 53.092 76.8154C53.041 76.8214 52.9465 76.7008 52.9234 76.6231C52.9045 76.5601 52.9444 76.4251 52.9903 76.4083C53.0941 76.3702 53.2543 76.3354 53.3257 76.3882C53.5039 76.5202 53.6185 76.7434 53.9002 76.7011C53.9209 76.6981 53.9692 76.8778 54.0184 77.0083Z" fill="#7BC998"/>
<path d="M46.3132 68.0395C46.5778 67.9591 46.8388 67.8598 47.1091 67.81C47.1898 67.795 47.3167 67.9021 47.3821 67.9852C47.4178 68.0305 47.3881 68.2021 47.3548 68.2129C47.2537 68.245 47.1361 68.2306 47.0251 68.2267C46.8973 68.2222 46.7698 68.2075 46.642 68.2006C46.537 68.1949 46.432 68.1943 46.327 68.1916C46.3225 68.1409 46.3177 68.0902 46.3132 68.0395Z" fill="#7BC998"/>
<path d="M37.1236 26.263C37.4335 26.1256 37.7599 25.9708 38.0959 25.8403C38.1619 25.8145 38.2636 25.8814 38.3491 25.9057C38.3029 25.9813 38.2732 26.0794 38.2069 26.1274C38.068 26.2285 37.9174 26.3233 37.7575 26.3821C37.6528 26.4202 37.5193 26.4091 37.4062 26.3857C37.2964 26.3629 37.1962 26.296 37.1236 26.263Z" fill="#7BC998"/>
<path d="M38.3929 24.9036C38.2909 24.7659 38.1508 24.6402 38.1025 24.4857C38.0776 24.4059 38.1937 24.2142 38.2858 24.1803C38.4934 24.1038 38.6758 24.2292 38.6908 24.4392C38.701 24.5835 38.5864 24.7365 38.5276 24.8856C38.4826 24.8916 38.4376 24.8976 38.3929 24.9036Z" fill="#7BC998"/>
<path d="M31.4146 19.2572C31.3141 18.9284 31.4056 18.7436 31.6276 18.7064C31.7311 18.689 31.9744 18.8924 31.9657 18.9116C31.8802 19.1039 31.7551 19.2785 31.6414 19.4582C31.5442 19.3721 31.4473 19.286 31.4146 19.2572Z" fill="#7BC998"/>
<path d="M60.5272 80.6994C60.661 80.8914 60.7867 81.09 60.9325 81.2721C60.9865 81.3396 61.0909 81.3645 61.1662 81.4173C61.2289 81.4611 61.3402 81.5397 61.3306 81.564C61.2946 81.6561 61.231 81.7515 61.1506 81.8058C61.1179 81.8277 61.012 81.7536 60.9469 81.7113C60.8473 81.6465 60.7516 81.5748 60.6586 81.5004C60.511 81.3825 60.3667 81.2601 60.2209 81.1398C60.2398 81.1161 60.2587 81.0927 60.2776 81.069C60.4321 81.1938 60.5866 81.3183 60.7411 81.4431C60.7789 81.4095 60.8167 81.3762 60.8545 81.3426C60.7477 81.1239 60.6409 80.9055 60.5341 80.6868L60.5272 80.6994Z" fill="#7BC998"/>
<path d="M43.6957 79.3242C43.8424 79.4277 44.0011 79.5192 44.131 79.6407C44.1907 79.6965 44.2381 79.8267 44.2138 79.8963C44.1841 79.9812 44.083 80.07 43.9948 80.0961C43.9288 80.1156 43.7815 80.0562 43.7617 80.0001C43.6858 79.7844 43.6468 79.5558 43.594 79.332C43.6279 79.3293 43.6618 79.3266 43.6957 79.3242Z" fill="#7BC998"/>
<path d="M71.2288 75.8582C71.4109 75.8258 71.5552 75.8003 71.7022 75.7742C71.8156 75.9155 71.779 76.472 71.6335 76.547C71.5837 76.5728 71.4433 76.5368 71.4274 76.4963C71.3467 76.2914 71.2933 76.0754 71.2288 75.8582Z" fill="#7BC998"/>
<path d="M63.8344 42.9754C63.8242 42.6859 63.931 42.5497 64.1341 42.5368C64.2124 42.5317 64.372 42.6736 64.3684 42.742C64.3594 42.9091 64.2769 43.0726 64.2241 43.2376C64.0939 43.1503 63.964 43.0627 63.8344 42.9754Z" fill="#7BC998"/>
<path d="M59.3617 10.232C59.4961 10.0241 59.5657 9.85369 59.6917 9.75649C59.7349 9.72319 59.9194 9.87258 60.0394 9.93858C59.9398 10.094 59.8504 10.2587 59.7301 10.3961C59.7106 10.4183 59.5534 10.3196 59.3617 10.232Z" fill="#7BC998"/>
<path d="M64.1785 87.2484C64.225 87.0678 64.2373 86.8956 64.3156 86.7618C64.3657 86.6763 64.5136 86.6484 64.6174 86.5947C64.6549 86.7177 64.7485 86.8572 64.7179 86.9601C64.6552 87.1725 64.4914 87.3069 64.1785 87.2484Z" fill="#7BC998"/>
<path d="M46.2244 83.9458C46.2238 83.7718 46.2145 83.5966 46.2346 83.425C46.237 83.4052 46.4311 83.3641 46.4839 83.4034C46.5769 83.4727 46.7101 83.6389 46.6837 83.689C46.615 83.8183 46.4689 83.9065 46.3534 84.0109C46.3105 83.989 46.2673 83.9674 46.2244 83.9458Z" fill="#7BC998"/>
<path d="M57.8275 9.19605C57.6019 8.97345 57.6631 8.48985 57.8518 8.45115C57.9118 8.43885 58.0756 8.59064 58.0645 8.63504C58.0189 8.81474 57.9238 8.98155 57.8275 9.19605Z" fill="#7BC998"/>
<path d="M44.1094 86.1679C44.2504 85.9804 44.341 85.8382 44.4583 85.723C44.4811 85.7008 44.6074 85.7839 44.686 85.8184C44.6086 85.9918 44.5312 86.1652 44.4538 86.3386C44.3683 86.2963 44.2825 86.2537 44.1094 86.1679Z" fill="#7BC998"/>
<path d="M70.1815 58.5307C69.8335 58.6357 69.8065 58.6045 69.772 58.057C70.1119 57.8848 70.1851 57.9694 70.1815 58.5307Z" fill="#7BC998"/>
<path d="M52.558 17.6536C52.8289 17.6887 53.0512 18.025 52.9585 18.1924C52.9366 18.232 52.867 18.2779 52.8313 18.2698C52.7668 18.2551 52.6744 18.2131 52.6585 18.1624C52.6105 18.0094 52.5934 17.8468 52.558 17.6536Z" fill="#7BC998"/>
<path d="M44.6002 57.8231C44.4343 57.7136 44.3173 57.6365 44.2003 57.5594C44.2549 57.4814 44.3209 57.332 44.3623 57.3386C44.4955 57.3593 44.6194 57.4379 44.7469 57.494C44.7073 57.5831 44.6677 57.6719 44.6002 57.8231Z" fill="#7BC998"/>
<path d="M45.0268 79.3043C44.9389 78.9311 44.8507 78.5579 44.7628 78.1847C44.7949 78.1772 44.8273 78.1694 44.8594 78.1619C44.8489 78.5609 45.2188 78.8636 45.1669 79.2731C45.1201 79.2836 45.0736 79.2941 45.0268 79.3043Z" fill="#7BC998"/>
<path d="M65.962 54.3938C65.8495 54.3566 65.6476 54.3308 65.6413 54.2801C65.6236 54.1391 65.6866 53.9876 65.7178 53.8406C65.7688 53.8397 65.8198 53.8388 65.8708 53.8379C65.9275 53.9855 65.9842 54.1331 66.0412 54.281C66.0145 54.3185 65.9884 54.3563 65.962 54.3938Z" fill="#7BC998"/>
<path d="M70.6507 54.657C70.8112 54.9564 70.5724 54.9936 70.3846 55.0416C70.129 55.107 70.162 54.9129 70.1503 54.7269C70.3225 54.7062 70.4929 54.6858 70.663 54.6651L70.6507 54.657Z" fill="#7BC998"/>
<path d="M52.6759 75.7741C52.5502 75.9118 52.4728 76.0546 52.4137 76.0474C52.3258 76.0369 52.2055 75.9313 52.1839 75.8452C52.1668 75.7765 52.2643 75.6223 52.3351 75.6052C52.4092 75.5869 52.5124 75.6868 52.6759 75.7741Z" fill="#7BC998"/>
<path d="M52.0801 17.8142C51.9352 17.6777 51.8257 17.6 51.7579 17.4953C51.7387 17.4656 51.8398 17.3579 51.886 17.2859C51.9928 17.3576 52.1143 17.4161 52.1971 17.5094C52.2223 17.5379 52.1419 17.6609 52.0801 17.8142Z" fill="#7BC998"/>
<path d="M65.4286 84.9833C65.485 84.8159 65.5354 84.6458 65.6032 84.4832C65.6143 84.4565 65.7115 84.4394 65.7505 84.4574C65.7877 84.4745 65.8309 84.554 65.8192 84.5882C65.7646 84.7469 65.6917 84.8993 65.6254 85.0538C65.56 85.0304 65.4943 85.007 65.4286 84.9833Z" fill="#7BC998"/>
<path d="M66.2167 38.9971C66.0799 38.8972 65.9494 38.848 65.9419 38.7841C65.9335 38.7133 66.0265 38.5804 66.0958 38.5648C66.1678 38.5486 66.2986 38.6212 66.3376 38.6914C66.364 38.7403 66.2788 38.8507 66.2167 38.9971Z" fill="#7BC998"/>
<path d="M72.6358 61.6716C72.5986 61.5141 72.5596 61.3569 72.5326 61.1976C72.5317 61.1925 72.7087 61.1469 72.7108 61.1532C72.7654 61.3047 72.8074 61.461 72.8515 61.6164C72.7795 61.6344 72.7078 61.653 72.6358 61.6716Z" fill="#7BC998"/>
<path d="M46.8391 34.5162C46.7167 34.3725 46.6069 34.3002 46.6081 34.2297C46.6096 34.1547 46.7164 34.0818 46.777 34.0083C46.8397 34.0614 46.9456 34.1082 46.9546 34.1694C46.9669 34.2498 46.9024 34.3416 46.8391 34.5162Z" fill="#7BC998"/>
<path d="M46.54 77.547C46.6993 77.4783 46.8505 77.4723 46.9189 77.6757C46.933 77.7177 46.8175 77.8548 46.7995 77.8479C46.6849 77.8047 46.5811 77.7336 46.4737 77.6715C46.4956 77.6298 46.5178 77.5884 46.54 77.547Z" fill="#7BC998"/>
<path d="M70.0204 55.7582C70.0042 55.5494 69.9916 55.3895 69.9754 55.1819C70.3081 55.4486 70.3213 55.5983 70.0204 55.7582Z" fill="#7BC998"/>
<path d="M71.2006 74.397C71.5891 74.5032 71.5945 74.5173 71.4145 74.8959C71.3548 74.7567 71.2951 74.6175 71.2006 74.397Z" fill="#7BC998"/>
<path d="M60.5341 80.6868C60.2923 80.904 60.2188 80.8836 60.0901 80.535C60.1828 80.5572 60.2578 80.5752 60.3652 80.601C60.3313 80.5254 60.3055 80.4675 60.2797 80.4093C60.304 80.3955 60.328 80.3817 60.3523 80.3679C60.4105 80.4783 60.469 80.589 60.5272 80.6994L60.5341 80.6868Z" fill="#7BC998"/>
<path d="M47.1004 33.4862C47.0059 33.623 46.9519 33.7013 46.8979 33.7796C46.8295 33.7274 46.7257 33.6863 46.7038 33.6188C46.6855 33.5627 46.7464 33.4385 46.8034 33.4121C46.8595 33.3863 46.9549 33.4454 47.1004 33.4862Z" fill="#7BC998"/>
<path d="M45.2983 72.835C45.4435 72.7057 45.5158 72.6226 45.6064 72.5722C45.6334 72.5572 45.7627 72.6484 45.7576 72.6682C45.7333 72.7609 45.6985 72.8746 45.6277 72.9232C45.5824 72.9541 45.4684 72.8848 45.2983 72.835Z" fill="#7BC998"/>
<path d="M45.9172 68.4761C45.8419 68.7041 45.7087 68.7608 45.4153 68.5442C45.6013 68.465 45.7333 68.4089 45.8653 68.3528C45.8827 68.3939 45.9001 68.435 45.9172 68.4761Z" fill="#7BC998"/>
<path d="M65.8678 34.3275C65.6563 34.35 65.4571 34.3797 65.4832 34.0434C65.6914 34.0257 65.9017 33.9789 65.8678 34.3275Z" fill="#7BC998"/>
<path d="M67.1062 31.4959C67.1296 31.6279 67.1527 31.7599 67.1956 32.0023C67.0492 31.9012 66.94 31.8643 66.9313 31.8112C66.9148 31.7089 66.955 31.597 66.9718 31.4893C67.0165 31.4914 67.0612 31.4935 67.1062 31.4959Z" fill="#7BC998"/>
</g>
<path d="M31.0534 71.5676C30.9433 70.6691 29.5867 69.7364 28.9015 69.2675C28.4317 68.9462 27.9307 68.6711 27.4093 68.4431C27.9817 68.4731 28.5565 68.4512 29.1244 68.3729C29.9467 68.2595 31.5772 68.0306 32.077 67.2761C32.2543 67.0082 32.2936 66.7088 32.2354 66.4133C32.0242 65.3456 30.5356 64.3337 29.6788 65.0816C30.2617 64.5728 30.8704 64.0259 31.1041 63.2879C31.1983 62.9903 31.2238 62.6588 31.1032 62.3708C30.8725 61.8212 30.1696 61.6016 29.5867 61.7264C29.0038 61.8512 28.5148 62.2337 28.0486 62.6048C28.4026 62.0867 28.5838 61.4525 28.5568 60.8258C28.5403 60.4439 28.4239 60.029 28.1047 59.8187C27.0715 59.1377 25.7986 60.7448 25.2598 61.4102C24.7306 62.0633 24.2845 62.783 23.9305 63.5453C24.0022 62.7077 23.9731 61.8617 23.8387 61.0319C23.7019 60.1868 23.3965 58.1594 22.1617 58.2368C21.7801 58.2605 21.4729 58.5626 21.2689 58.8857C20.9338 59.4161 20.7757 60.0563 20.8252 60.6818C20.6053 60.1277 20.3713 59.5529 19.9276 59.1548C19.4839 58.7567 18.7648 58.5977 18.2914 58.9598C18.0436 59.1494 17.9008 59.45 17.8345 59.7551C17.6704 60.5114 17.9266 61.2887 18.1795 62.0201C17.8078 60.9452 16.0132 61.0829 15.2989 61.9043C15.1015 62.1314 14.9866 62.411 15.0073 62.7314C15.0658 63.6347 16.3666 64.6439 17.0236 65.1509C17.4772 65.501 17.9653 65.8058 18.4768 66.0644C17.911 66.0026 17.3395 65.9924 16.7722 66.0377C15.9448 66.1037 14.3038 66.2387 13.7617 66.9635C13.5691 67.2206 13.5127 67.5176 13.5541 67.8158C13.7035 68.894 15.1318 69.9896 16.0303 69.2921C15.4192 69.7667 14.7799 70.2779 14.5045 71.0012C14.3935 71.2928 14.3488 71.6225 14.4529 71.9168C14.6515 72.4787 15.3409 72.7382 15.9298 72.647C16.5187 72.5558 17.029 72.2021 17.5156 71.8583C17.1325 72.3551 16.9153 72.9779 16.9063 73.6052C16.9009 73.9874 16.9933 74.4083 17.2999 74.6366C18.2923 75.3758 19.6552 73.8443 20.2315 73.211C21.0829 72.2753 21.7585 71.1797 22.2127 69.9989C22.0198 71.2493 22.0612 72.5357 22.3345 73.7711C22.5196 74.6069 22.9408 76.6133 24.1693 76.4657C24.5488 76.4201 24.8383 76.1009 25.0234 75.7664C25.3276 75.2177 25.4488 74.5694 25.3633 73.9478C25.6147 74.4884 25.8814 75.0488 26.347 75.4208C26.8126 75.7928 27.5398 75.9104 27.9916 75.5216C28.2283 75.3179 28.3534 75.0098 28.402 74.7014C28.5226 73.937 28.2223 73.1756 27.9277 72.4601C28.3606 73.5122 30.1444 73.2716 30.8101 72.4106C30.994 72.1721 31.0927 71.8865 31.0534 71.5676ZM22.6345 68.4113C22.6519 68.0339 22.5805 67.6661 22.33 67.3481C22.2709 67.2734 22.1938 67.2056 22.1074 67.1414C22.2103 67.1345 22.3078 67.1192 22.3945 67.0898C22.7212 66.9794 22.9588 66.7673 23.1415 66.5066C23.17 66.8237 23.2708 67.1258 23.4994 67.3841C23.5603 67.4528 23.6374 67.5143 23.7229 67.5716C23.6161 67.5842 23.5153 67.6046 23.4271 67.6403C23.0521 67.7915 22.8073 68.0753 22.6345 68.4113Z" fill="#FCB130"/>
<path d="M25.3912 67.954C25.0294 69.313 23.6347 70.1212 22.2757 69.7594C20.917 69.3976 20.1085 68.0029 20.4703 66.6439C20.8321 65.2852 22.2268 64.4767 23.5858 64.8385C24.9445 65.2003 25.753 66.595 25.3912 67.954Z" fill="#DA6158"/>
<path d="M43.372 79.7164C43.0282 79.0969 41.77 78.8185 41.1355 78.6796C40.7002 78.5845 40.2562 78.532 39.8107 78.5197C40.2346 78.3733 40.6456 78.1888 41.0344 77.9653C41.5978 77.6416 42.7135 76.9969 42.8545 76.3027C42.9046 76.0564 42.8452 75.8275 42.7159 75.6304C42.2491 74.9176 40.8721 74.6206 40.4698 75.415C40.7434 74.8747 41.0242 74.299 40.9771 73.6951C40.9579 73.4515 40.8793 73.2034 40.7071 73.03C40.3783 72.6988 39.8038 72.7462 39.4177 73.0078C39.0316 73.2694 38.7892 73.6906 38.5597 74.0968C38.6644 73.6171 38.6095 73.1038 38.4058 72.6568C38.2816 72.3844 38.0755 72.1177 37.7821 72.0589C36.8326 71.8684 36.3811 73.408 36.1852 74.0488C35.9932 74.6779 35.8807 75.3313 35.8477 75.9883C35.6539 75.3595 35.3842 74.7544 35.0431 74.1916C34.6957 73.6186 33.8788 72.2377 33.0055 72.6562C32.7358 72.7855 32.6014 73.0948 32.5483 73.3894C32.461 73.8727 32.5342 74.3836 32.7538 74.8228C32.4316 74.4853 32.0929 74.137 31.6543 73.9786C31.2157 73.8199 30.6469 73.9159 30.4099 74.3176C30.2857 74.5279 30.2704 74.788 30.3121 75.0286C30.415 75.6256 30.8293 76.1143 31.2274 76.5706C30.6421 75.8998 29.3806 76.5268 29.1037 77.3323C29.0272 77.5552 29.026 77.7916 29.1352 78.0181C29.4427 78.6562 30.6829 79.0066 31.3087 79.1815C31.7407 79.3024 32.1844 79.3801 32.6311 79.4176C32.2024 79.5391 31.7848 79.6993 31.3864 79.8988C30.8053 80.1895 29.6545 80.7694 29.4739 81.4543C29.4097 81.6973 29.4559 81.9295 29.5735 82.1335C29.9986 82.8718 31.3564 83.2474 31.8034 82.4773C31.4992 83.0011 31.1857 83.5597 31.1983 84.1651C31.2034 84.4093 31.2679 84.6616 31.4296 84.8446C31.7389 85.1941 32.3152 85.1797 32.7157 84.9406C33.1162 84.7015 33.3826 84.295 33.6346 83.9026C33.5026 84.3757 33.5278 84.8911 33.7054 85.3489C33.8137 85.6279 34.0042 85.906 34.2937 85.9816C35.2306 86.2264 35.77 84.7153 36.0019 84.0865C36.3448 83.1574 36.5131 82.1644 36.496 81.1744C36.7231 82.1383 37.1308 83.0593 37.6921 83.8753C38.0719 84.4276 38.9665 85.7593 39.8146 85.2913C40.0765 85.1467 40.1926 84.8302 40.2289 84.5332C40.2883 84.0457 40.186 83.5399 39.9415 83.1139C40.2826 83.4322 40.6405 83.7604 41.0878 83.8936C41.5348 84.0268 42.097 83.8984 42.3106 83.4838C42.4225 83.2666 42.4228 83.0062 42.3676 82.7683C42.2305 82.1782 41.7892 81.7141 41.3653 81.2815C41.9881 81.9175 43.2118 81.2194 43.4419 80.3992C43.5061 80.1724 43.4938 79.9363 43.372 79.7164ZM36.337 79.8988C36.2389 79.6198 36.079 79.3738 35.8039 79.2169C35.7391 79.18 35.6632 79.1536 35.5819 79.1323C35.6545 79.0969 35.7208 79.0573 35.7751 79.0105C35.9797 78.8344 36.0898 78.6109 36.1456 78.3679C36.2596 78.5896 36.4213 78.7792 36.6631 78.8992C36.7273 78.9313 36.8014 78.9532 36.8803 78.9697C36.8065 79.0102 36.7396 79.0546 36.6859 79.1062C36.4579 79.3264 36.3637 79.6042 36.337 79.8988Z" fill="#DA6158"/>
<path d="M38.2027 78.7574C38.3392 79.8494 37.5646 80.8454 36.4726 80.9819C35.3806 81.1184 34.3846 80.3438 34.2481 79.2518C34.1116 78.1598 34.8862 77.1638 35.9782 77.0273C37.0702 76.8908 38.0662 77.6654 38.2027 78.7574Z" fill="#FCB130"/>
</svg>
