<svg width="200" height="113" viewBox="0 0 200 113" fill="none" xmlns="http://www.w3.org/2000/svg">
<path d="M195.971 71.4231C198.43 68.9633 200 65.6185 200 62.1929V25.3747C200 23.0064 199.25 20.95 197.974 19.3892C197.317 18.5864 196.522 17.9149 195.618 17.3992C195.618 17.3992 169.74 2.64306 169.739 2.6428C169.333 2.41079 168.904 2.21051 168.456 2.04421C167.73 1.77454 166.954 1.59402 166.139 1.51225C165.189 1.41691 164.187 1.45589 163.151 1.64444L23.1298 27.1419C20.4966 27.6215 18.0802 28.9893 16.1893 30.8804C16.1893 30.8804 4.03022 43.0404 4.0293 43.0413C3.45897 43.6117 2.93656 44.2295 2.47051 44.8851C0.926326 47.0567 0 49.6404 0 52.2719V89.0898C0 92.6763 1.7206 95.5475 4.38148 97.0651C4.38148 97.0651 30.2565 111.823 30.2573 111.823C32.0918 112.869 34.3733 113.272 36.8457 112.822L162.427 89.9539L172.141 95.4936L184.3 83.3321L184.624 82.7727L195.971 71.4231Z" fill="#F0F4F7"/>
<path d="M0 89.0898C0 95.1492 4.91139 99.167 10.9699 98.0638L141.263 74.3379L146.263 80.7358L158.422 68.5745L158.745 68.0151L170.092 56.6659C172.551 54.2061 174.121 50.8614 174.121 47.4358V10.6183C174.121 8.25003 173.371 6.19355 172.095 4.63282C170.106 2.20054 166.842 0.972417 163.151 1.64448L23.1298 27.1421C20.4968 27.6215 18.0804 28.9893 16.1893 30.8806C16.1893 30.8806 4.03022 43.0405 4.0293 43.0415C1.56985 45.5013 0 48.8462 0 52.2721V89.0898Z" fill="#74B4A7"/>
<path d="M163.151 1.64445L23.1298 27.1421C17.0715 28.2452 12.1601 34.0517 12.1601 40.111V76.9285C12.1601 82.9879 17.0715 87.0055 23.1298 85.9024L153.421 62.1767L158.422 68.5746L163.151 60.4049C169.21 59.3016 174.121 53.4953 174.121 47.4359V10.6183C174.121 4.55891 169.21 0.541281 163.151 1.64445Z" fill="#1894F2"/>
<path d="M21.1317 87.5377C18.5919 87.5377 16.2489 86.7237 14.3777 85.1614C12.0094 83.1852 10.7052 80.26 10.7052 76.9243V40.1064C10.7052 33.3879 16.1619 26.9279 22.8695 25.7067L162.891 0.209181C166.292 -0.411662 169.488 0.360739 171.903 2.37627C174.271 4.35244 175.575 7.2777 175.575 10.6139V47.4317C175.575 53.9243 170.481 60.175 164.086 61.6908L158.601 71.1626L152.817 63.7612L23.3904 87.3294C22.6251 87.4686 21.8705 87.5377 21.1317 87.5377ZM163.412 3.07138L23.3904 28.5689C18.0001 29.5506 13.6145 34.7263 13.6145 40.1064V76.9241C13.6145 79.3818 14.5474 81.5139 16.2416 82.9276C17.9831 84.3819 20.3402 84.9274 22.8696 84.4671L154.026 60.5835L158.242 65.978L162.229 59.09L162.891 58.9697C168.281 57.988 172.666 52.8119 172.666 47.4317V10.6139C172.666 8.15623 171.734 6.02416 170.039 4.61051C168.298 3.1567 165.943 2.61065 163.412 3.07138Z" fill="white"/>
<path d="M27.7648 44.5296L37.5843 42.6509V45.8195L32.4733 46.7969V52.9108L36.8087 52.0811V55.3057L32.4733 56.135V66.3423L27.7648 67.2435V44.5296Z" fill="white"/>
<path d="M41.2021 63.0822C40.149 62.0223 39.6225 60.2674 39.6225 57.819V49.3496C39.6225 46.9013 40.149 44.9587 41.2021 43.5239C42.255 42.0885 44.0155 41.1346 46.4854 40.662C48.9353 40.1937 50.692 40.4793 51.7535 41.5192C52.8161 42.5587 53.3474 44.2943 53.3474 46.7242V55.221C53.3474 57.6514 52.816 59.5986 51.7535 61.064C50.692 62.5291 48.9353 63.4963 46.4854 63.9647C44.0155 64.4371 42.255 64.1431 41.2021 63.0822ZM48.1076 59.5466C48.385 58.9603 48.5243 58.2008 48.5243 57.2655V46.5254C48.5243 45.591 48.385 44.8935 48.1076 44.4317C47.8301 43.971 47.2894 43.8175 46.4854 43.971C45.6814 44.1249 45.1397 44.4859 44.8633 45.0527C44.5848 45.6205 44.4466 46.371 44.4466 47.3054V58.0455C44.4466 58.9992 44.5811 59.712 44.848 60.184C45.116 60.6562 45.6615 60.8134 46.4854 60.6558C47.2893 60.5023 47.8301 60.1324 48.1076 59.5466Z" fill="white"/>
<path d="M56.5052 39.0272L61.2137 38.1265V57.6997L66.6978 56.6502V59.7909L56.5052 61.7411V39.0272Z" fill="white"/>
<path d="M68.9378 36.6551L73.6463 35.7539V55.3274L79.1304 54.2779V57.4186L68.9378 59.3687V36.6551Z" fill="white"/>
<path d="M82.2892 55.2201C81.2362 54.1599 80.7096 52.4054 80.7096 49.9565V41.4876C80.7096 39.0387 81.2362 37.0963 82.2892 35.6613C83.3414 34.2263 85.1028 33.2721 87.5725 32.7995C90.0225 32.3311 91.7782 32.6167 92.8408 33.6567C93.9034 34.6967 94.4345 36.4319 94.4345 38.8618V47.3586C94.4345 49.7889 93.9033 51.7366 92.8408 53.2015C91.7782 54.6666 90.0225 55.6337 87.5725 56.1021C85.1028 56.5746 83.3414 56.2809 82.2892 55.2201ZM89.1947 51.684C89.4712 51.0977 89.6105 50.3382 89.6105 49.4029V38.6628C89.6105 37.7286 89.4712 37.0308 89.1947 36.5692C88.9174 36.1085 88.3756 35.9549 87.5725 36.1089C86.7685 36.2623 86.2269 36.6232 85.9493 37.19C85.6719 37.7578 85.5336 38.5085 85.5336 39.4427V50.1828C85.5336 51.1365 85.6671 51.8493 85.9351 52.3215C86.203 52.7941 86.7485 52.9509 87.5724 52.7937C88.3756 52.6397 88.9174 52.2699 89.1947 51.684Z" fill="white"/>
<path d="M96.6733 31.3295L100.665 30.5662L102.301 44.1333L104.339 29.8908L107.527 29.2809L109.652 42.671L111.289 28.5335L115.221 27.781L112.236 51.066L108.187 51.8407L105.947 37.8833L103.794 52.681L99.6887 53.4666L96.6733 31.3295Z" fill="white"/>
<path d="M127.482 47.5996C126.506 47.2164 125.817 46.5208 125.415 45.5135C125.013 44.5061 124.812 43.1612 124.812 41.4782V25.9433L129.464 25.054V41.2339C129.464 42.3184 129.597 43.1429 129.865 43.7089C130.133 44.2743 130.688 44.477 131.531 44.3155C132.373 44.1544 132.928 43.7395 133.196 43.0714C133.464 42.4032 133.598 41.5272 133.598 40.4426V24.2626L138.278 23.3669V38.902C138.278 40.5846 138.077 42.0067 137.675 43.1679C137.273 44.3291 136.579 45.2895 135.593 46.0477C134.608 46.8064 133.253 47.3504 131.531 47.68C129.808 48.0097 128.458 47.9831 127.482 47.5996Z" fill="white"/>
<path d="M142.756 43.8144C141.684 42.8697 141.101 41.2008 141.005 38.8078L145.082 37.354C145.12 38.787 145.327 39.8084 145.7 40.4188C146.073 41.0302 146.633 41.2636 147.38 41.1208C147.935 41.0147 148.336 40.7657 148.585 40.3716C148.833 39.9785 148.958 39.5105 148.958 38.9679C148.958 38.071 148.753 37.3489 148.341 36.801C147.93 36.2535 147.283 35.6904 146.403 35.1108L143.991 33.5253C143.034 32.9234 142.302 32.2221 141.795 31.4213C141.288 30.6219 141.034 29.5952 141.034 28.3426C141.034 26.4919 141.594 24.9594 142.714 23.7447C143.833 22.5304 145.379 21.7348 147.35 21.3573C149.456 20.9548 150.921 21.2678 151.744 22.2975C152.567 23.3274 153.035 24.7477 153.151 26.5573L149.045 27.9315C149.006 26.7429 148.867 25.8857 148.629 25.3615C148.389 24.8372 147.915 24.6426 147.207 24.7781C146.69 24.877 146.289 25.1456 146.002 25.5836C145.714 26.0216 145.571 26.5027 145.571 27.0256C145.571 27.7739 145.738 28.3729 146.073 28.8223C146.408 29.2732 146.94 29.7363 147.667 30.2146L150.021 31.783C151.131 32.5237 152.002 33.3624 152.634 34.2977C153.265 35.2331 153.581 36.4112 153.581 37.8316C153.581 38.916 153.333 39.9314 152.835 40.8771C152.337 41.8233 151.634 42.626 150.725 43.2856C149.816 43.9453 148.767 44.3891 147.581 44.6159C145.437 45.0258 143.829 44.7588 142.756 43.8144Z" fill="white"/>
<path d="M155.677 38.7444L159.812 37.9535V41.9637L155.677 42.7546V38.7444ZM155.734 20.0856L160.071 19.2563L158.519 36.6302L156.997 36.9215L155.734 20.0856Z" fill="white"/>
<path d="M45.5814 106.447C45.1202 105.982 44.8892 105.214 44.8892 104.141V100.432C44.8892 99.3586 45.1202 98.5076 45.5814 97.8791C46.0426 97.2507 46.8144 96.8325 47.8949 96.6255C48.9688 96.4205 49.7378 96.5455 50.2037 97.0011C50.6696 97.4567 50.9016 98.2167 50.9016 99.2814V103.003C50.9016 104.068 50.6696 104.921 50.2037 105.563C49.7378 106.205 48.9688 106.628 47.8949 106.833C46.8144 107.04 46.0426 106.912 45.5814 106.447ZM48.6061 104.897C48.7282 104.641 48.7888 104.308 48.7888 103.898V99.1938C48.7888 98.7846 48.7282 98.4792 48.6061 98.277C48.4848 98.0753 48.2481 98.008 47.8949 98.0753C47.5435 98.1424 47.3068 98.3007 47.1846 98.5488C47.0633 98.7974 47.0028 99.1266 47.0028 99.5357V104.24C47.0028 104.658 47.0615 104.97 47.1789 105.177C47.2964 105.384 47.5351 105.453 47.8949 105.384C48.2481 105.317 48.4848 105.154 48.6061 104.897Z" fill="#1894F2"/>
<path d="M52.2851 95.8867L53.7322 95.6101L55.9954 100.348V95.1768L57.718 94.8472V104.796L56.323 105.063L54.0577 99.9934V105.496L52.285 105.836L52.2851 95.8867Z" fill="#1894F2"/>
<path d="M62.9124 103.186C62.4426 102.772 62.187 102.041 62.1452 100.992L63.9313 100.356C63.9484 100.983 64.0374 101.431 64.2013 101.699C64.3651 101.967 64.6094 102.069 64.937 102.006C65.1794 101.96 65.3566 101.851 65.4654 101.678C65.5734 101.506 65.6283 101.301 65.6283 101.063C65.6283 100.67 65.5393 100.354 65.3575 100.114C65.1776 99.8741 64.8954 99.6279 64.509 99.374L63.4522 98.6792C63.0336 98.4154 62.7135 98.1081 62.49 97.7576C62.2685 97.4067 62.1576 96.9578 62.1576 96.4085C62.1576 95.5978 62.403 94.9271 62.8934 94.3949C63.384 93.8631 64.0602 93.5144 64.9238 93.3492C65.8462 93.1726 66.4883 93.3099 66.8481 93.7608C67.2099 94.2125 67.4143 94.8343 67.4655 95.6271L65.6662 96.229C65.6491 95.7081 65.5885 95.3326 65.4844 95.1033C65.3793 94.8732 65.1718 94.7884 64.8613 94.8476C64.635 94.8912 64.4599 95.0087 64.3328 95.1998C64.2079 95.3922 64.1453 95.6029 64.1453 95.8321C64.1453 96.1599 64.2173 96.4222 64.3651 96.6191C64.5109 96.8167 64.7438 97.0198 65.063 97.2287L66.0942 97.9159C66.5811 98.2408 66.9617 98.6078 67.2382 99.0175C67.5146 99.4271 67.6539 99.9433 67.6539 100.566C67.6539 101.041 67.5451 101.485 67.3272 101.899C67.1084 102.314 66.8005 102.665 66.4029 102.955C66.0034 103.244 65.545 103.438 65.025 103.537C64.0857 103.716 63.382 103.6 62.9124 103.186Z" fill="#1894F2"/>
<path d="M69.2886 101.895C68.8275 101.43 68.5963 100.662 68.5963 99.589V95.8795C68.5963 94.8068 68.8274 93.9558 69.2886 93.3274C69.7498 92.6985 70.5215 92.2808 71.6021 92.074C72.6761 91.8683 73.4451 91.9934 73.911 92.449C74.3768 92.9046 74.6089 93.6651 74.6089 94.7296V98.4508C74.6089 99.5154 74.3768 100.368 73.911 101.011C73.4451 101.652 72.6761 102.076 71.6021 102.281C70.5217 102.488 69.7498 102.359 69.2886 101.895ZM72.3133 100.346C72.4355 100.089 72.4961 99.7561 72.4961 99.3464V94.642C72.4961 94.2328 72.4355 93.9274 72.3133 93.7252C72.1921 93.5234 71.9554 93.4557 71.6021 93.5234C71.2508 93.5906 71.014 93.7488 70.8928 93.997C70.7707 94.2456 70.7101 94.5743 70.7101 94.9836V99.6879C70.7101 100.106 70.7688 100.419 70.8862 100.625C71.0036 100.832 71.2423 100.901 71.6021 100.832C71.9554 100.765 72.1922 100.602 72.3133 100.346Z" fill="#1894F2"/>
<path d="M76.5199 100.49C76.0673 100.007 75.8409 99.2298 75.8409 98.1568V94.5946C75.8409 93.4974 76.0645 92.6256 76.5133 91.9787C76.9622 91.3323 77.7312 90.9042 78.8221 90.6958C79.8619 90.4968 80.5968 90.6035 81.0287 91.0164C81.4605 91.4293 81.6764 92.0985 81.6764 93.0238V93.8587L79.6649 94.2436V93.3225C79.6649 93.028 79.6497 92.7931 79.6204 92.6187C79.5911 92.4444 79.5153 92.309 79.3941 92.2134C79.2728 92.1182 79.0853 92.0945 78.8335 92.1428C78.4567 92.2149 78.2142 92.3801 78.1044 92.6382C77.9964 92.8968 77.9415 93.2552 77.9415 93.7136V98.2338C77.9415 98.7002 78.004 99.037 78.1299 99.2415C78.2559 99.4472 78.4908 99.5167 78.8336 99.4509C79.1868 99.3836 79.4131 99.2235 79.5136 98.9707C79.6139 98.7186 79.6651 98.3626 79.6651 97.9041V96.9338L81.6767 96.5488V97.3714C81.6767 98.3218 81.4626 99.0975 81.0355 99.699C80.6084 100.301 79.8698 100.702 78.8224 100.903C77.7406 101.109 76.9736 100.972 76.5199 100.49Z" fill="#1894F2"/>
<path d="M82.9719 90.0276L85.0345 89.6331V99.5818L82.9719 99.9767V90.0276Z" fill="#1894F2"/>
<path d="M88.0536 89.0528L90.355 88.6123L92.3172 98.1864L90.4051 98.552L90.0273 96.4374L88.4173 96.7458L88.0281 99.0066L86.0782 99.3797L88.0536 89.0528ZM89.8265 95.2234L89.2109 91.3373L88.6066 95.4563L89.8265 95.2234Z" fill="#1894F2"/>
<path d="M93.348 88.0412L95.4105 87.6467V96.2203L97.813 95.7609V97.1362L93.348 97.9905V88.0412Z" fill="#1894F2"/>
<path d="M102.077 86.3772L104.277 85.9562L105.535 91.9923L106.869 85.4603L108.994 85.0535L109.183 94.9667L107.673 95.2556L107.51 88.5308L106.202 95.5372L104.92 95.7825L103.573 89.2473L103.422 96.0687L101.9 96.3598L102.077 86.3772Z" fill="#1894F2"/>
<path d="M110.679 84.7167L115.119 83.8672V85.2671L112.742 85.7217V88.3628L114.578 88.0119V89.424L112.742 89.7754V92.8953L115.143 92.436V93.8117L110.679 94.6656V84.7167Z" fill="#1894F2"/>
<path d="M116.2 83.6825L118.69 83.2061C119.545 83.0429 120.214 83.0234 120.697 83.1479C121.178 83.2725 121.523 83.5406 121.727 83.9516C121.934 84.3626 122.036 84.9408 122.036 85.6862V89.3095C122.036 90.0711 121.936 90.7022 121.735 91.2038C121.532 91.7048 121.193 92.1135 120.716 92.4303C120.237 92.7471 119.579 92.9853 118.74 93.146L116.2 93.6317V83.6825ZM118.716 91.7381C119.075 91.6695 119.343 91.5628 119.515 91.4194C119.685 91.2764 119.795 91.0937 119.841 90.8715C119.887 90.6503 119.91 90.3387 119.91 89.9372V85.8228C119.91 85.4458 119.882 85.1664 119.829 84.9845C119.774 84.8027 119.663 84.6806 119.495 84.6185C119.327 84.5565 119.063 84.5598 118.702 84.6284L118.263 84.7128V91.8249L118.716 91.7381Z" fill="#1894F2"/>
<path d="M123.432 82.2759L125.494 81.8809V91.8305L123.432 92.225V82.2759Z" fill="#1894F2"/>
<path d="M128.513 81.3006L130.814 80.8601L132.777 90.4342L130.865 90.7999L130.487 88.6859L128.877 88.9937L128.488 91.2544L126.538 91.6276L128.513 81.3006ZM130.286 87.4712L129.67 83.5851L129.066 87.7048L130.286 87.4712Z" fill="#1894F2"/>
</svg>
