<svg width="1440" height="109" viewBox="0 0 1440 109" fill="none" xmlns="http://www.w3.org/2000/svg">
<path d="M1440 61.7474V7.44475C1440 7.44475 1362.5 -1.7517 1311 38.0995C1259.5 77.9507 1202 46.5919 1162.5 21.4586C1123 -3.6747 1093.5 45.8108 1016 46.6867C938.5 47.5625 930 46.6867 869 11.8237C808 -23.0392 810 72.7911 735 42.3074C660 11.8237 593 60.8715 558 31.9685C523 3.0655 472.263 37.5519 429.5 35.0341C391.665 32.8064 386 6.56911 338 6.5689C290 6.56869 253.117 21.4581 212 21.4581C170.883 21.4581 161.183 7.24925 123.5 14.0136C96.8775 18.7925 87.6238 33.884 58.5 32.4067C32.5033 31.088 0 0 0 0V61.7474H1440Z" fill="#ADC6D9"/>
<path d="M1440 77.0755V7.00745C1440 7.00745 1374 39.4131 1316 37.6614C1258 35.9097 1242.5 3.50233 1201.5 33.2821C1160.5 63.0619 1114.5 62.6231 1114.5 62.6231C1114.5 62.6231 1029.5 58.6818 982 28.4649C934.5 -1.75191 838.5 49.9224 778.5 52.5508C718.5 55.1792 713.5 37.2243 692.5 39.851C671.5 42.4777 671.5 55.1792 651.5 52.5508C631.5 49.9224 632.5 27.1511 607 27.1511C581.5 27.1511 573.5 49.9224 542.5 63.4989C511.5 77.0755 457 24.5236 419 24.5236C381 24.5236 349 59.1197 325 63.4989C301 67.8782 280.5 18.5419 225.5 19.7064C170.5 20.8708 111.839 46.4275 98.5 47.7336C18 55.6161 0 7.00745 0 7.00745V77.0755H1440Z" fill="#4886B5"/>
<path d="M1440 109V67.2624C1440 67.2624 1298.5 39.242 1261.5 67.2624C1224.5 95.2829 1134.7 53.4115 1051.5 54.1315C973.136 54.8097 848 70.1321 848 70.1321C822 70.1321 815 51.8707 779 52.3937C743 52.9166 733.5 70.1321 696 72.5243C658.5 74.9165 643.5 51.3502 628 52.3937C612.5 53.4371 586 65.0655 570 59.9585C554 54.8514 485.654 37.829 423.5 59.9585C389.5 62.8281 369.5 18.6595 328.5 48.8763C287.5 79.0932 283 70.3347 227.5 52.3797C172 34.4248 149 75.1518 103 45.0894C57 15.0269 0 67.2624 0 67.2624V109H1440Z" fill="#09354E"/>
</svg>
