<svg width="16" height="18" viewBox="0 0 16 18" fill="none" xmlns="http://www.w3.org/2000/svg">
<path d="M10.9678 12.0022V13.2369H11.2755C11.7659 13.2369 11.8375 12.8428 11.8375 12.6055C11.8375 12.4456 11.7873 12.0022 11.2183 12.0022H10.9678Z" fill="#09354E"/>
<path d="M8.44769 12.0023V12.5168H8.75172C8.95579 12.5168 9.17046 12.5025 9.17046 12.2469C9.17046 12.0163 8.99157 12.0021 8.79829 12.0021L8.44769 12.0023Z" fill="#09354E"/>
<path d="M14.8072 9.94158H14.5276V4.97192L10.0399 0H2.38372C1.06938 0 0 1.05979 0 2.36277V15.6372C0 16.94 1.06919 18 2.38372 18H12.1441C13.4584 18 14.5278 16.9402 14.5278 15.6372V15.0659H14.8072C15.466 15.0659 16 14.5363 16 13.8834V11.1239C16 10.4709 15.4662 9.94158 14.8072 9.94158ZM10.3538 2.03647L12.6896 4.62403H10.3538V2.03647ZM13.392 15.6372C13.392 16.3193 12.8322 16.8742 12.1441 16.8742H2.38372C1.6956 16.8742 1.13583 16.3193 1.13583 15.6372V2.36277C1.13583 1.6807 1.6956 1.12584 2.38372 1.12584H9.21798V5.74988H13.392V9.94158H7.45007C6.79129 9.94158 6.25707 10.4709 6.25707 11.1241V13.8835C6.25707 14.5363 6.7911 15.0661 7.45007 15.0661H13.392V15.6372ZM12.6245 12.616C12.6245 13.393 12.2094 13.886 11.3183 13.886H10.18V11.3532H11.472C12.3239 11.3532 12.6245 11.9777 12.6245 12.616ZM9.91519 12.2188C9.91519 12.8324 9.50005 13.1197 8.91301 13.1197H8.44789V13.886H7.66039V11.3532H8.97757C9.67175 11.3532 9.91519 11.8568 9.91519 12.2188ZM14.9403 12.0023H13.7522V12.3182H14.7722V12.9211H13.7522V13.8862H12.9647V11.3532H14.9405L14.9403 12.0023Z" fill="#09354E"/>
</svg>
