<svg width="16" height="16" viewBox="0 0 16 16" fill="none" xmlns="http://www.w3.org/2000/svg">
<g id="icon/location">
<path id="Vector" d="M8 0.5C11.0077 0.5 13.5 3.11102 13.5 6.40039C13.4999 8.01887 12.8148 9.51645 11.7197 11.0332C10.7075 12.4351 9.38482 13.8024 8 15.2705C6.61518 13.8024 5.29249 12.4351 4.28027 11.0332C3.18518 9.51645 2.50011 8.01887 2.5 6.40039C2.5 3.11102 4.99234 0.5 8 0.5Z" stroke="#09354E" stroke-linecap="round" stroke-linejoin="round"/>
<path id="Vector_2" d="M8 8C9.1046 8 10 7.1046 10 6C10 4.89543 9.1046 4 8 4C6.8954 4 6 4.89543 6 6C6 7.1046 6.8954 8 8 8Z" stroke="#09354E" stroke-linecap="round" stroke-linejoin="round"/>
</g>
</svg>
