<svg width="21" height="20" viewBox="0 0 21 20" fill="none" xmlns="http://www.w3.org/2000/svg">
<path d="M5.27344 0.0573177C4.2 0.27763 3.31875 0.896379 2.74688 1.83857C2.4 2.40575 2.22656 3.11825 2.22656 3.94325V4.47294L1.8 4.49638C1.43438 4.51982 1.33125 4.54794 1.03594 4.69325C0.623438 4.89482 0.351562 5.17138 0.15 5.60263L0 5.91669V7.21513C0 8.45263 0.0046875 8.51826 0.0984375 8.64013C0.28125 8.88857 0.43125 8.96357 0.726562 8.96357C1.02188 8.96357 1.17188 8.88857 1.35469 8.64013C1.44844 8.52294 1.45312 8.42919 1.47656 7.337C1.5 6.1745 1.5 6.16513 1.6125 6.07607C1.6875 6.01513 1.79531 5.987 1.97344 5.987H2.22656V9.89169C2.22656 12.4136 2.24531 13.8948 2.27813 14.0776C2.42344 14.912 2.84063 15.6667 3.45938 16.2386L3.71719 16.4729L3.73594 17.4292C3.75 18.3058 3.75938 18.4042 3.85781 18.5964C4.02188 18.9292 4.20938 19.1308 4.53281 19.3042L4.82812 19.4636H5.60156H6.375L6.67031 19.3042C6.99844 19.1261 7.14375 18.9761 7.32188 18.6245C7.42969 18.4136 7.44844 18.3151 7.46719 17.8089L7.48594 17.237H10.4766H13.4672L13.4859 17.8089C13.5047 18.2776 13.5281 18.4276 13.6078 18.5964C13.7672 18.9292 13.9594 19.1261 14.2828 19.3042L14.5781 19.4636H15.3516H16.125L16.4203 19.3042C16.7484 19.1261 16.8891 18.9808 17.0766 18.6245C17.1984 18.3901 17.2031 18.3573 17.2172 17.4292L17.2359 16.4776L17.5359 16.1917C17.8922 15.8589 18.2906 15.2776 18.4641 14.8323C18.7266 14.1714 18.7266 14.1386 18.7266 9.89638V5.987H18.9797C19.1578 5.987 19.2656 6.01513 19.3406 6.07607C19.4531 6.16513 19.4531 6.1745 19.4766 7.337C19.5 8.42919 19.5047 8.52294 19.5984 8.64013C19.7812 8.88857 19.9313 8.96357 20.2266 8.96357C20.5219 8.96357 20.6719 8.88857 20.8547 8.64013C20.9484 8.51826 20.9531 8.45263 20.9531 7.21044V5.912L20.7797 5.55575C20.4516 4.8995 19.9031 4.54325 19.1484 4.49638L18.7359 4.47294L18.7125 3.78857C18.6797 2.86513 18.5297 2.33544 18.1219 1.712C17.5875 0.896379 16.8984 0.399504 15.8672 0.0901299C15.6328 0.0198174 15.1172 0.0104427 10.5938 0.00106621C6.58594 -0.00362015 5.51719 0.00575447 5.27344 0.0573177ZM16.3359 3.11825C16.6734 3.28232 16.8703 3.46982 17.0438 3.79325L17.2031 4.08857V6.50263C17.2031 9.24951 17.2125 9.17919 16.8094 9.61044C16.4391 10.0089 16.2375 10.0651 14.625 10.2479C13.0547 10.4261 12.3141 10.4636 10.4531 10.4589C8.61094 10.4589 7.95 10.4261 6.36094 10.2479C4.69688 10.0651 4.50938 10.0089 4.11563 9.587C3.74531 9.17919 3.75 9.23075 3.75 6.50263V4.08857L3.86719 3.85419C4.06875 3.45107 4.45312 3.13232 4.875 3.02919C4.95469 3.01044 7.51406 3.00107 10.5703 3.00107L16.125 3.01044L16.3359 3.11825ZM5.94844 12.7933C6.35156 12.9151 6.72656 13.4308 6.72656 13.862C6.72656 14.4433 6.18281 14.987 5.60156 14.987C5.02031 14.987 4.47656 14.4433 4.47656 13.862C4.47656 13.5667 4.58438 13.3276 4.82812 13.0886C5.15625 12.7558 5.50781 12.6667 5.94844 12.7933ZM15.6984 12.7933C16.1016 12.9151 16.4766 13.4308 16.4766 13.862C16.4766 14.4433 15.9328 14.987 15.3516 14.987C14.7703 14.987 14.2266 14.4433 14.2266 13.862C14.2266 13.5667 14.3344 13.3276 14.5781 13.0886C14.9063 12.7558 15.2578 12.6667 15.6984 12.7933Z" fill="#09354E"/>
</svg>
