<svg width="24" height="24" viewBox="0 0 24 24" fill="none" xmlns="http://www.w3.org/2000/svg">
<path d="M6.95061 0.0703144C5.17405 0.473438 3.69749 2.7 3.19124 5.75156C2.97561 7.07344 2.95686 8.325 3.14436 9.08906C3.45374 10.35 4.33967 11.4328 5.54905 12.0281C5.82561 12.1641 5.90999 12.2297 5.90999 12.3047C5.9053 12.3563 5.81624 14.5641 5.70374 17.2125C5.58186 20.1047 5.51624 22.1297 5.53967 22.2891C5.59123 22.6688 5.81624 23.1188 6.10686 23.4047C6.88498 24.1828 8.12248 24.1828 8.90061 23.4047C9.19123 23.1188 9.41623 22.6688 9.4678 22.2891C9.49123 22.1297 9.42561 20.1047 9.30373 17.2125C9.19123 14.5641 9.10217 12.3563 9.09748 12.3047C9.09748 12.2297 9.18186 12.1641 9.46311 12.0281C10.6678 11.4328 11.5537 10.35 11.8631 9.08906C12.0506 8.325 12.0319 7.07344 11.8162 5.75156C11.3334 2.85938 9.9553 0.651564 8.30061 0.135939C7.89748 0.00937653 7.32561 -0.0187492 6.95061 0.0703144Z" fill="#09354E"/>
<path d="M13.7373 0.257812C13.7373 0.393749 13.6811 2.025 13.6154 3.87656C13.5498 5.72812 13.5123 7.37812 13.5264 7.54688C13.6483 8.82187 14.3701 9.93281 15.4389 10.5094L15.7061 10.6547V10.9641C15.7014 11.1328 15.6029 13.6922 15.4764 16.65C15.3451 19.8656 15.2654 22.1344 15.2889 22.2891C15.3404 22.6687 15.5654 23.1187 15.8561 23.4047C16.6342 24.1828 17.8717 24.1828 18.6498 23.4047C18.9404 23.1187 19.1654 22.6687 19.217 22.2891C19.2404 22.1344 19.1608 19.8656 19.0295 16.65C18.9029 13.6922 18.8045 11.1328 18.7998 10.9641V10.6547L19.0717 10.5094C20.1358 9.93281 20.8576 8.82187 20.9795 7.54688C20.9936 7.37812 20.9561 5.72812 20.8904 3.87656C20.8248 2.025 20.7686 0.393749 20.7686 0.257812V0H20.1404H19.517L19.4842 0.571875C19.4701 0.890625 19.4139 2.49844 19.3576 4.14844C19.3061 5.79844 19.2545 7.17656 19.2451 7.20469C19.2311 7.24687 19.0904 7.26562 18.7529 7.26562C18.4154 7.26562 18.2748 7.24687 18.2608 7.20469C18.2514 7.17656 18.1998 5.79844 18.1483 4.14844C18.092 2.49844 18.0358 0.890625 18.0217 0.571875L17.9889 0H17.2529H16.517L16.4842 0.571875C16.4701 0.890625 16.4139 2.49844 16.3576 4.14844C16.3061 5.79844 16.2545 7.17656 16.2451 7.20469C16.2311 7.24687 16.0904 7.26562 15.7529 7.26562C15.4154 7.26562 15.2748 7.24687 15.2608 7.20469C15.2514 7.17656 15.1998 5.79844 15.1483 4.14844C15.092 2.49844 15.0358 0.890625 15.0217 0.571875L14.9889 0H14.3654H13.7373V0.257812Z" fill="#09354E"/>
</svg>
