<svg width="24" height="24" viewBox="0 0 24 24" fill="none" xmlns="http://www.w3.org/2000/svg">
<path d="M2.05625 3.87656C1.65781 4.91719 1.14688 6.42656 0.926563 7.24219C0.81875 7.64531 0.78125 7.89375 0.7625 8.37656L0.734375 9H3.74844H6.75781L6.73906 8.4C6.72031 7.93125 6.68281 7.6875 6.56563 7.24687C6.39219 6.59062 6.00781 5.41406 5.65625 4.45312L5.40313 3.77344L3.75313 3.75937L2.10781 3.75L2.05625 3.87656Z" fill="#09354E"/>
<path d="M9.95156 5.32031C9.15469 5.53594 8.52656 6.16875 8.32031 6.96094C8.26406 7.18594 8.25 7.55625 8.25 8.86875V10.5H10.1203H11.9906L12.0094 9.92344C12.0281 9.37969 12.0375 9.3375 12.1875 9.05625C12.3609 8.72812 12.5063 8.5875 12.8625 8.4L13.1016 8.27344H14.625H16.1484L16.4438 8.43281C16.7719 8.61094 16.9172 8.76094 17.0953 9.1125C17.2031 9.32344 17.2219 9.42188 17.2406 9.92344L17.2594 10.5H19.1297H21V8.91094C21 8.02969 20.9766 7.21406 20.9531 7.07344C20.7938 6.24844 20.1234 5.54062 19.2891 5.32031C18.8906 5.21719 10.3313 5.21719 9.95156 5.32031Z" fill="#09354E"/>
<path d="M3 14.625V18.75H1.875H0.75V19.5V20.25H12H23.25V19.5V18.75H22.5H21.75V18V17.25H22.5H23.25V15.6187C23.25 14.3062 23.2359 13.9359 23.1797 13.7109C22.9688 12.9047 22.3406 12.2812 21.5297 12.0703C21.1219 11.9625 8.12344 11.9625 7.71094 12.0703C6.90469 12.2812 6.28125 12.9094 6.07031 13.7203C6.01406 13.9312 6 14.325 6 15.6187V17.25H6.75H7.5V18V18.75H6H4.5V14.625V10.5H3.75H3V14.625ZM20.25 18V18.75H14.625H9V18V17.25H14.625H20.25V18Z" fill="#09354E"/>
</svg>
